<svg xmlns="http://www.w3.org/2000/svg" width="368" height="405" fill="none">
  <path fill="#272727" stroke="#fff" d="M98.9 74.7c1.3 0 3.3 1 4.2 1.6.1.5 0 1.6-1.5 2.5-2 1.2-3.2-.7-3.4-1.3-.2-.6-1.5-2-3.4-1.3 1.3-1.7 5 1 5.7 1 .7.2 0-1.6-1.6-2.5Z"/>
  <path fill="#272727" stroke="#272727" d="M137.8 92.9c25.6-20.7 77.1-13.6 87.4-8 10.3 5.6 37.5 16.9 37 53-.4 36-.3 15.4-4.2 57.9-10.5 29.3 38 30.6 28.2 131.5 7.1 20.5-172.7 25.2-183.5 5.2-10.7-20-26.4-53.2 8.6-123.5 8-18.5-10.2-25.3-11.7-37.3 4 5.8 11.1 7.4 14 5.8-1.3-4.9-11.3-7.2-15.1-10.4 2.7 1.8 9.7 3 12 1-.4-1.7.5-5-8.5-7.8 7-3.6 12.2-9.6 12-19.7-2.5-13-1.8-27 23.8-47.7Z"/>
  <path fill="#272727" d="M273.8 176.7c-7 .2-11.4-4.6-12.6-7-4.9-.5-16.6.4-24.6 7.8-10 9.3 13.2 12.7 14.6 16.2 1.5 3.5 5.3 3.4 17.2-7-8.4 3-14.5-4-10-3.7 4.4.4 8.1-.7 15.4-6.3Z"/>
  <path fill="#272727" stroke="#272727" d="M103.5 77c9.3 1.6 32.2 6.8 39.7 13.6-.8 7.3-17.3 22.5-25.5 29.1-9-14.6-26.2-45-14.2-42.8Zm167 1.6c-9 3.6-31.5 13.8-38 22.1 2 7 19.4 20.4 28.8 25.2 10.2-17 21-52 9.2-47.3Z"/>
  <path stroke="#fff" d="M133.3 98.6c-8.1-9.1-25.5-21.3-33-20.7M244 106.4c6.7-10.7 22.2-26.5 30-27.5M170.8 139c-23.3-.3-51 .4-72.7-5.2m66.3 6.7c-23.2 1.7-50.6 4.8-72.7 1.1"/>
  <path fill="#272727" d="m55 189 23 10.7-23-10.8ZM32.2 69.8a25.6 25.6 0 1 1 43.5-27L54 56.5 32.2 70ZM134 328.6l-4.6 25.1c-52-9.4-86.3-35.2-102-70.8-15.2-34.5-10.4-73.2 4.4-104.8L55 188.9l23 10.9c-10.3 22-11.7 44.8-3.9 62.5 7.3 16.7 25 34 64.4 41.1l-4.6 25.2ZM55 188.9l-23.2-10.8C44.4 151.3 48 130.6 47 114a92 92 0 0 0-14.8-44.2L54 56.4 75.7 43a143 143 0 0 1 22.4 68.2c1.5 26.7-4.6 55.9-20 88.6L55 188.9Z"/>
  <mask id="a" width="36" height="37" x="204" y="99" maskUnits="userSpaceOnUse" style="mask-type:alpha">
    <path fill="#000" d="M204.9 117.6c.5 10 8.8 18 18.4 18a17 17 0 0 0 16.5-18.5c-.6-10-8.8-18.1-18.4-18a17 17 0 0 0-16.5 18.5Z"/>
  </mask>
  <g mask="url(#a)">
    <path fill="#272727" d="M204.5 110.8c.6 10 8.8 18.1 18.5 18a17 17 0 0 0 16.4-18.5c-.5-10-8.8-18-18.4-18a17 17 0 0 0-16.5 18.5Z"/>
    <ellipse cx="17.5" cy="19.2" fill="#FFE93F" rx="17.5" ry="19.2" transform="matrix(-1 0 0 1 238.3 89.7)"/>
    <path stroke="#272727" stroke-width="1.1" d="M220.9 90.2a18.9 18.9 0 0 0-18.3 20.5 20.9 20.9 0 0 0 20.5 20 18.9 18.9 0 0 0 18.3-20.5 20.9 20.9 0 0 0-20.5-20Z"/>
    <path fill="#272727" d="M226.3 106.9c.2 4.3.9 11.4 1.3 11.4s.4-7.1.2-11.4c-.2-4.4-1-12.7-1.4-12.7-.4 0-.3 8.3-.1 12.7Z"/>
  </g>
  <path stroke="#fff" d="M217.7 135.9c30 .2 65.6 1.7 93.6-5m-85.5 6.8c30 3 65.4 7.6 94 3.5"/>
  <path stroke="#C65757" d="M195.4 128c0 1 0 1.6.4 2.7 1.1 3.4 4.1 7.2 9.2 6.8"/>
  <path fill="#C65757" d="M195.1 147.4c7.5.3 9.5-8.5 10.2-10a9 9 0 0 1-9.6-6.9c-3.5 7.2-8.8 7.6-11 7-.1 1.2 3 9.6 10.4 10Z"/>
  <path fill="#F6897D" d="M190.5 139.9c5.1-1.6 10 1.6 11.8 3.3-1 2.3-2.2 4.4-6.6 4.6-3.4.1-6-1.6-7.4-3-1.5-1.4-3-3.4 2.2-5Z"/>
  <path fill="#C65757" d="M200.2 123.7c2.7-.4 2.1-3.4-.5-4.4-3.5-.9-6-.3-9.5.7-2 .6-3 4.2.4 4.6 1.6.2 1 .1 3.5 2.7 2.6 2.5 2.7-3.2 6-3.6Z"/>
  <mask id="b" width="39" height="41" x="141" y="98" maskUnits="userSpaceOnUse" style="mask-type:alpha">
    <path fill="#000" d="M141.4 118.2c0 11.1 8.4 20.1 18.9 20.1 10.5 0 19-9 19-20.1 0-11.1-8.5-20.1-19-20.1s-19 9-19 20.1Z"/>
  </mask>
  <g mask="url(#b)">
    <path fill="#272727" d="M141.4 110.7c0 11.1 8.4 20.2 18.9 20.2 10.5 0 19-9 19-20.2 0-11-8.5-20.1-19-20.1s-19 9-19 20.1Z"/>
    <ellipse cx="19" cy="20.1" fill="#FFE93F" rx="19" ry="20.1" transform="matrix(-1 0 0 1 179.3 87.9)"/>
    <path stroke="#272727" stroke-width="1.1" d="M160.3 88.1c-11.6 0-21 10-21 22.5 0 12.4 9.4 22.4 21 22.4s21.1-10 21.1-22.4c0-12.5-9.5-22.5-21-22.5Z"/>
    <path fill="#272727" d="M164 105.5a77 77 0 0 0 1.2 12.7c.5 0 .6-8 .4-12.8-.1-4.9-.8-14.1-1.3-14.1-.4 0-.5 9.3-.3 14.2Z"/>
  </g>
</svg>
