<svg width="387" height="637" viewBox="0 0 387 637" fill="none" xmlns="http://www.w3.org/2000/svg">
<rect width="387" height="637" fill="#272727"/>
<rect x="16" y="58.9277" width="38" height="38" rx="15" stroke="#54BD64"/>
<path d="M31.6155 82.2214H25.3269L24.1685 85.4277H22.1826L27.3956 71.0922H29.5676L34.7598 85.4277H32.774L31.6155 82.2214ZM31.0777 80.6906L28.4712 73.4091L25.8648 80.6906H31.0777ZM47.3748 79.3253C47.3748 79.6839 47.3541 80.0631 47.3128 80.4631H38.2522C38.3212 81.5801 38.7004 82.4558 39.39 83.0902C40.0933 83.7108 40.9414 84.0211 41.9344 84.0211C42.748 84.0211 43.4238 83.8349 43.9616 83.4625C44.5132 83.0764 44.8994 82.5661 45.12 81.9318H47.1473C46.8439 83.0212 46.2371 83.9107 45.3269 84.6003C44.4167 85.276 43.2859 85.6139 41.9344 85.6139C40.8587 85.6139 39.8933 85.3726 39.0383 84.8899C38.1971 84.4072 37.5351 83.7246 37.0524 82.842C36.5698 81.9456 36.3284 80.9113 36.3284 79.739C36.3284 78.5668 36.5629 77.5394 37.0317 76.6568C37.5006 75.7742 38.1557 75.0984 38.9969 74.6296C39.852 74.1469 40.8311 73.9055 41.9344 73.9055C43.01 73.9055 43.9616 74.14 44.7891 74.6089C45.6165 75.0778 46.2509 75.7259 46.6922 76.5534C47.1473 77.367 47.3748 78.291 47.3748 79.3253ZM45.4303 78.9323C45.4303 78.2152 45.2717 77.6015 44.9545 77.0912C44.6374 76.5672 44.2029 76.1741 43.6513 75.9121C43.1135 75.6363 42.5136 75.4984 41.8516 75.4984C40.9001 75.4984 40.0864 75.8018 39.4107 76.4086C38.7487 77.0154 38.3695 77.8566 38.2729 78.9323H45.4303Z" fill="#54BD64"/>
<path d="M67.616 71.6884H69.344L74.636 84.6484H72.944L71.486 80.9404H65.474L64.016 84.6484H62.324L67.616 71.6884ZM70.91 79.5004L68.48 73.3264L66.05 79.5004H70.91ZM77.0071 76.6204H75.2791V75.2884H77.0071V73.8124C77.0071 73.3204 77.0791 72.9184 77.2231 72.6064C77.3671 72.2944 77.5951 72.0664 77.9071 71.9224C78.2311 71.7664 78.6631 71.6884 79.2031 71.6884H81.0391V73.0204H79.4911C79.1551 73.0204 78.9091 73.0984 78.7531 73.2544C78.5971 73.3984 78.5191 73.6444 78.5191 73.9924V75.2884H81.0391V76.6204H78.5191V84.6484H77.0071V76.6204ZM85.7949 84.6484C85.2549 84.6484 84.8229 84.5764 84.4989 84.4324C84.1869 84.2764 83.9589 84.0424 83.8149 83.7304C83.6709 83.4184 83.5989 83.0164 83.5989 82.5244V76.6204H81.8709V75.2884H83.5989V72.4084H85.1109V75.2884H87.6309V76.6204H85.1109V82.3444C85.1109 82.6804 85.1889 82.9264 85.3449 83.0824C85.5009 83.2384 85.7469 83.3164 86.0829 83.3164H87.6309V84.6484H85.7949ZM93.1967 84.8644C92.3327 84.8644 91.5647 84.6544 90.8927 84.2344C90.2327 83.8144 89.7227 83.2324 89.3627 82.4884C89.0027 81.7444 88.8227 80.9044 88.8227 79.9684C88.8227 79.0324 89.0027 78.1924 89.3627 77.4484C89.7227 76.7044 90.2327 76.1224 90.8927 75.7024C91.5647 75.2824 92.3327 75.0724 93.1967 75.0724C94.0607 75.0724 94.8227 75.2824 95.4827 75.7024C96.1547 76.1224 96.6707 76.7044 97.0307 77.4484C97.3907 78.1924 97.5707 79.0324 97.5707 79.9684V80.5084H90.4247C90.4847 81.1084 90.6287 81.6304 90.8567 82.0744C91.0847 82.5184 91.3967 82.8664 91.7927 83.1184C92.1887 83.3704 92.6567 83.4964 93.1967 83.4964C93.8087 83.4964 94.3427 83.3464 94.7987 83.0464C95.2547 82.7464 95.5907 82.3324 95.8067 81.8044H97.3727C97.0727 82.7404 96.5507 83.4844 95.8067 84.0364C95.0747 84.5884 94.2047 84.8644 93.1967 84.8644ZM95.9327 79.1404C95.8127 78.3124 95.5187 77.6584 95.0507 77.1784C94.5827 76.6864 93.9647 76.4404 93.1967 76.4404C92.4287 76.4404 91.8107 76.6864 91.3427 77.1784C90.8747 77.6584 90.5807 78.3124 90.4607 79.1404H95.9327ZM99.3621 75.2884H100.802V76.8544C101.15 76.2304 101.576 75.7984 102.08 75.5584C102.584 75.3064 103.154 75.1804 103.79 75.1804H104.492V76.6384H103.754C103.19 76.6384 102.692 76.7344 102.26 76.9264C101.84 77.1064 101.504 77.4184 101.252 77.8624C101 78.3064 100.874 78.9004 100.874 79.6444V84.6484H99.3621V75.2884ZM109.718 71.6884H118.754V73.1284H111.302V77.1604H118.214V78.6004H111.302V83.2084H118.682V84.6484H109.718V71.6884ZM121.304 76.6204H119.576V75.2884H121.304V73.8124C121.304 73.3204 121.376 72.9184 121.52 72.6064C121.664 72.2944 121.892 72.0664 122.204 71.9224C122.528 71.7664 122.96 71.6884 123.5 71.6884H125.336V73.0204H123.788C123.452 73.0204 123.206 73.0984 123.05 73.2544C122.894 73.3984 122.816 73.6444 122.816 73.9924V75.2884H125.336V76.6204H122.816V84.6484H121.304V76.6204ZM127.896 76.6204H126.168V75.2884H127.896V73.8124C127.896 73.3204 127.968 72.9184 128.112 72.6064C128.256 72.2944 128.484 72.0664 128.796 71.9224C129.12 71.7664 129.552 71.6884 130.092 71.6884H131.928V73.0204H130.38C130.044 73.0204 129.798 73.0984 129.642 73.2544C129.486 73.3984 129.408 73.6444 129.408 73.9924V75.2884H131.928V76.6204H129.408V84.6484H127.896V76.6204ZM137.494 84.8644C136.63 84.8644 135.862 84.6544 135.19 84.2344C134.53 83.8144 134.02 83.2324 133.66 82.4884C133.3 81.7444 133.12 80.9044 133.12 79.9684C133.12 79.0324 133.3 78.1924 133.66 77.4484C134.02 76.7044 134.53 76.1224 135.19 75.7024C135.862 75.2824 136.63 75.0724 137.494 75.0724C138.358 75.0724 139.12 75.2824 139.78 75.7024C140.452 76.1224 140.968 76.7044 141.328 77.4484C141.688 78.1924 141.868 79.0324 141.868 79.9684V80.5084H134.722C134.782 81.1084 134.926 81.6304 135.154 82.0744C135.382 82.5184 135.694 82.8664 136.09 83.1184C136.486 83.3704 136.954 83.4964 137.494 83.4964C138.106 83.4964 138.64 83.3464 139.096 83.0464C139.552 82.7464 139.888 82.3324 140.104 81.8044H141.67C141.37 82.7404 140.848 83.4844 140.104 84.0364C139.372 84.5884 138.502 84.8644 137.494 84.8644ZM140.23 79.1404C140.11 78.3124 139.816 77.6584 139.348 77.1784C138.88 76.6864 138.262 76.4404 137.494 76.4404C136.726 76.4404 136.108 76.6864 135.64 77.1784C135.172 77.6584 134.878 78.3124 134.758 79.1404H140.23ZM147.655 84.8644C146.791 84.8644 146.029 84.6544 145.369 84.2344C144.709 83.8144 144.199 83.2324 143.839 82.4884C143.479 81.7444 143.299 80.9044 143.299 79.9684C143.299 79.0324 143.479 78.1924 143.839 77.4484C144.199 76.7044 144.709 76.1224 145.369 75.7024C146.029 75.2824 146.791 75.0724 147.655 75.0724C148.783 75.0724 149.695 75.3784 150.391 75.9904C151.099 76.6024 151.525 77.4244 151.669 78.4564H150.103C149.971 77.8324 149.689 77.3404 149.257 76.9804C148.837 76.6204 148.303 76.4404 147.655 76.4404C147.067 76.4404 146.563 76.5904 146.143 76.8904C145.735 77.1904 145.423 77.6044 145.207 78.1324C144.991 78.6604 144.883 79.2724 144.883 79.9684C144.883 80.6644 144.991 81.2764 145.207 81.8044C145.423 82.3324 145.735 82.7464 146.143 83.0464C146.563 83.3464 147.067 83.4964 147.655 83.4964C148.303 83.4964 148.843 83.3164 149.275 82.9564C149.707 82.5844 149.983 82.0804 150.103 81.4444H151.669C151.537 82.4644 151.099 83.2924 150.355 83.9284C149.623 84.5524 148.723 84.8644 147.655 84.8644ZM156.494 84.6484C155.954 84.6484 155.522 84.5764 155.198 84.4324C154.886 84.2764 154.658 84.0424 154.514 83.7304C154.37 83.4184 154.298 83.0164 154.298 82.5244V76.6204H152.57V75.2884H154.298V72.4084H155.81V75.2884H158.33V76.6204H155.81V82.3444C155.81 82.6804 155.888 82.9264 156.044 83.0824C156.2 83.2384 156.446 83.3164 156.782 83.3164H158.33V84.6484H156.494ZM163.266 84.8644C162.09 84.8644 161.142 84.5944 160.422 84.0544C159.714 83.5024 159.33 82.6804 159.27 81.5884H160.8C160.872 82.2844 161.106 82.7884 161.502 83.1004C161.91 83.4004 162.498 83.5504 163.266 83.5504C163.962 83.5504 164.502 83.4304 164.886 83.1904C165.282 82.9384 165.48 82.5904 165.48 82.1464C165.48 81.8464 165.426 81.6124 165.318 81.4444C165.21 81.2644 164.988 81.1084 164.652 80.9764C164.316 80.8444 163.806 80.7244 163.122 80.6164C162.198 80.4604 161.472 80.2564 160.944 80.0044C160.428 79.7404 160.068 79.4284 159.864 79.0684C159.66 78.7084 159.558 78.2644 159.558 77.7364C159.558 76.9324 159.876 76.2904 160.512 75.8104C161.16 75.3184 161.988 75.0724 162.996 75.0724C164.184 75.0724 165.114 75.3424 165.786 75.8824C166.47 76.4224 166.818 77.1844 166.83 78.1684H165.318C165.294 77.5084 165.078 77.0464 164.67 76.7824C164.262 76.5184 163.704 76.3864 162.996 76.3864C162.444 76.3864 161.982 76.5064 161.61 76.7464C161.25 76.9744 161.07 77.2984 161.07 77.7184C161.07 78.0184 161.136 78.2584 161.268 78.4384C161.4 78.6064 161.634 78.7504 161.97 78.8704C162.318 78.9904 162.828 79.1104 163.5 79.2304C164.412 79.3864 165.12 79.5844 165.624 79.8244C166.128 80.0644 166.482 80.3644 166.686 80.7244C166.902 81.0724 167.01 81.5164 167.01 82.0564C167.01 82.9324 166.662 83.6224 165.966 84.1264C165.27 84.6184 164.37 84.8644 163.266 84.8644Z" fill="#54BD64"/>
<rect x="16" y="182.643" width="38" height="38" rx="15" stroke="#54BD64"/>
<path d="M34.839 198.944C34.839 200.144 34.4253 201.144 33.5979 201.944C32.7842 202.73 31.5361 203.123 29.8537 203.123H27.0817V209.143H25.1993V194.724H29.8537C31.481 194.724 32.7153 195.117 33.5565 195.903C34.4115 196.69 34.839 197.703 34.839 198.944ZM29.8537 201.571C30.9018 201.571 31.6741 201.344 32.1705 200.889C32.667 200.434 32.9152 199.786 32.9152 198.944C32.9152 197.165 31.8947 196.276 29.8537 196.276H27.0817V201.571H29.8537ZM41.1918 209.329C40.323 209.329 39.5438 209.184 38.8543 208.894C38.1647 208.591 37.62 208.177 37.22 207.653C36.8201 207.115 36.5995 206.502 36.5581 205.812H38.5026C38.5577 206.378 38.8198 206.84 39.2887 207.198C39.7713 207.557 40.3988 207.736 41.1711 207.736C41.8882 207.736 42.4536 207.577 42.8674 207.26C43.2811 206.943 43.488 206.543 43.488 206.06C43.488 205.564 43.2673 205.198 42.826 204.964C42.3847 204.716 41.702 204.474 40.7781 204.24C39.9368 204.019 39.2473 203.799 38.7094 203.578C38.1854 203.344 37.7303 203.006 37.3442 202.564C36.9718 202.109 36.7856 201.516 36.7856 200.785C36.7856 200.206 36.958 199.675 37.3028 199.193C37.6476 198.71 38.1371 198.331 38.7715 198.055C39.4059 197.765 40.1299 197.62 40.9436 197.62C42.1985 197.62 43.2121 197.938 43.9844 198.572C44.7567 199.206 45.1704 200.075 45.2256 201.178H43.3431C43.3018 200.585 43.0604 200.11 42.6191 199.751C42.1916 199.393 41.6124 199.213 40.8815 199.213C40.2057 199.213 39.6679 199.358 39.268 199.648C38.868 199.937 38.6681 200.316 38.6681 200.785C38.6681 201.158 38.7853 201.468 39.0197 201.716C39.268 201.951 39.5714 202.144 39.9299 202.295C40.3023 202.433 40.8125 202.592 41.4607 202.771C42.2744 202.992 42.9363 203.213 43.4466 203.433C43.9568 203.64 44.3912 203.957 44.7498 204.385C45.1222 204.812 45.3152 205.371 45.329 206.06C45.329 206.681 45.1566 207.239 44.8119 207.736C44.4671 208.232 43.9775 208.625 43.3431 208.915C42.7226 209.191 42.0054 209.329 41.1918 209.329Z" fill="#54BD64"/>
<path d="M63.224 195.403H68.408C69.392 195.403 70.214 195.583 70.874 195.943C71.546 196.291 72.044 196.765 72.368 197.365C72.704 197.965 72.872 198.637 72.872 199.381C72.872 200.125 72.704 200.797 72.368 201.397C72.044 201.997 71.546 202.477 70.874 202.837C70.214 203.185 69.392 203.359 68.408 203.359H64.808V208.363H63.224V195.403ZM68.408 201.919C69.356 201.919 70.064 201.691 70.532 201.235C71 200.767 71.234 200.149 71.234 199.381C71.234 198.613 71 198.001 70.532 197.545C70.064 197.077 69.356 196.843 68.408 196.843H64.808V201.919H68.408ZM74.6297 195.403H76.1417V200.263C76.4777 199.807 76.8917 199.447 77.3837 199.183C77.8757 198.919 78.4397 198.787 79.0757 198.787C79.8317 198.787 80.4557 198.949 80.9477 199.273C81.4517 199.597 81.8177 200.023 82.0457 200.551C82.2857 201.067 82.4057 201.619 82.4057 202.207V208.363H80.9117V202.351C80.9117 201.679 80.7317 201.145 80.3717 200.749C80.0117 200.353 79.4837 200.155 78.7877 200.155C78.4637 200.155 78.0977 200.227 77.6897 200.371C77.2937 200.515 76.9337 200.809 76.6097 201.253C76.2977 201.697 76.1417 202.321 76.1417 203.125V208.363H74.6297V195.403ZM88.7356 208.579C87.8236 208.579 87.0196 208.369 86.3236 207.949C85.6396 207.529 85.1116 206.947 84.7396 206.203C84.3796 205.459 84.1996 204.619 84.1996 203.683C84.1996 202.747 84.3796 201.907 84.7396 201.163C85.1116 200.419 85.6396 199.837 86.3236 199.417C87.0196 198.997 87.8236 198.787 88.7356 198.787C89.6476 198.787 90.4456 198.997 91.1296 199.417C91.8256 199.837 92.3536 200.419 92.7136 201.163C93.0856 201.907 93.2716 202.747 93.2716 203.683C93.2716 204.619 93.0856 205.459 92.7136 206.203C92.3536 206.947 91.8256 207.529 91.1296 207.949C90.4456 208.369 89.6476 208.579 88.7356 208.579ZM88.7356 207.211C89.3836 207.211 89.9236 207.061 90.3556 206.761C90.7996 206.461 91.1296 206.047 91.3456 205.519C91.5736 204.991 91.6876 204.379 91.6876 203.683C91.6876 202.987 91.5736 202.375 91.3456 201.847C91.1296 201.319 90.7996 200.905 90.3556 200.605C89.9236 200.305 89.3836 200.155 88.7356 200.155C88.0876 200.155 87.5416 200.305 87.0976 200.605C86.6656 200.905 86.3356 201.319 86.1076 201.847C85.8916 202.375 85.7836 202.987 85.7836 203.683C85.7836 204.379 85.8916 204.991 86.1076 205.519C86.3356 206.047 86.6656 206.461 87.0976 206.761C87.5416 207.061 88.0876 207.211 88.7356 207.211ZM98.205 208.363C97.665 208.363 97.233 208.291 96.909 208.147C96.597 207.991 96.369 207.757 96.225 207.445C96.081 207.133 96.009 206.731 96.009 206.239V200.335H94.281V199.003H96.009V196.123H97.521V199.003H100.041V200.335H97.521V206.059C97.521 206.395 97.599 206.641 97.755 206.797C97.911 206.953 98.157 207.031 98.493 207.031H100.041V208.363H98.205ZM105.769 208.579C104.857 208.579 104.053 208.369 103.357 207.949C102.673 207.529 102.145 206.947 101.773 206.203C101.413 205.459 101.233 204.619 101.233 203.683C101.233 202.747 101.413 201.907 101.773 201.163C102.145 200.419 102.673 199.837 103.357 199.417C104.053 198.997 104.857 198.787 105.769 198.787C106.681 198.787 107.479 198.997 108.163 199.417C108.859 199.837 109.387 200.419 109.747 201.163C110.119 201.907 110.305 202.747 110.305 203.683C110.305 204.619 110.119 205.459 109.747 206.203C109.387 206.947 108.859 207.529 108.163 207.949C107.479 208.369 106.681 208.579 105.769 208.579ZM105.769 207.211C106.417 207.211 106.957 207.061 107.389 206.761C107.833 206.461 108.163 206.047 108.379 205.519C108.607 204.991 108.721 204.379 108.721 203.683C108.721 202.987 108.607 202.375 108.379 201.847C108.163 201.319 107.833 200.905 107.389 200.605C106.957 200.305 106.417 200.155 105.769 200.155C105.121 200.155 104.575 200.305 104.131 200.605C103.699 200.905 103.369 201.319 103.141 201.847C102.925 202.375 102.817 202.987 102.817 203.683C102.817 204.379 102.925 204.991 103.141 205.519C103.369 206.047 103.699 206.461 104.131 206.761C104.575 207.061 105.121 207.211 105.769 207.211ZM115.418 208.579C114.242 208.579 113.294 208.309 112.574 207.769C111.866 207.217 111.482 206.395 111.422 205.303H112.952C113.024 205.999 113.258 206.503 113.654 206.815C114.062 207.115 114.65 207.265 115.418 207.265C116.114 207.265 116.654 207.145 117.038 206.905C117.434 206.653 117.632 206.305 117.632 205.861C117.632 205.561 117.578 205.327 117.47 205.159C117.362 204.979 117.14 204.823 116.804 204.691C116.468 204.559 115.958 204.439 115.274 204.331C114.35 204.175 113.624 203.971 113.096 203.719C112.58 203.455 112.22 203.143 112.016 202.783C111.812 202.423 111.71 201.979 111.71 201.451C111.71 200.647 112.028 200.005 112.664 199.525C113.312 199.033 114.14 198.787 115.148 198.787C116.336 198.787 117.266 199.057 117.938 199.597C118.622 200.137 118.97 200.899 118.982 201.883H117.47C117.446 201.223 117.23 200.761 116.822 200.497C116.414 200.233 115.856 200.101 115.148 200.101C114.596 200.101 114.134 200.221 113.762 200.461C113.402 200.689 113.222 201.013 113.222 201.433C113.222 201.733 113.288 201.973 113.42 202.153C113.552 202.321 113.786 202.465 114.122 202.585C114.47 202.705 114.98 202.825 115.652 202.945C116.564 203.101 117.272 203.299 117.776 203.539C118.28 203.779 118.634 204.079 118.838 204.439C119.054 204.787 119.162 205.231 119.162 205.771C119.162 206.647 118.814 207.337 118.118 207.841C117.422 208.333 116.522 208.579 115.418 208.579ZM120.702 195.403H122.214V200.263C122.55 199.807 122.964 199.447 123.456 199.183C123.948 198.919 124.512 198.787 125.148 198.787C125.904 198.787 126.528 198.949 127.02 199.273C127.524 199.597 127.89 200.023 128.118 200.551C128.358 201.067 128.478 201.619 128.478 202.207V208.363H126.984V202.351C126.984 201.679 126.804 201.145 126.444 200.749C126.084 200.353 125.556 200.155 124.86 200.155C124.536 200.155 124.17 200.227 123.762 200.371C123.366 200.515 123.006 200.809 122.682 201.253C122.37 201.697 122.214 202.321 122.214 203.125V208.363H120.702V195.403ZM134.808 208.579C133.896 208.579 133.092 208.369 132.396 207.949C131.712 207.529 131.184 206.947 130.812 206.203C130.452 205.459 130.272 204.619 130.272 203.683C130.272 202.747 130.452 201.907 130.812 201.163C131.184 200.419 131.712 199.837 132.396 199.417C133.092 198.997 133.896 198.787 134.808 198.787C135.72 198.787 136.518 198.997 137.202 199.417C137.898 199.837 138.426 200.419 138.786 201.163C139.158 201.907 139.344 202.747 139.344 203.683C139.344 204.619 139.158 205.459 138.786 206.203C138.426 206.947 137.898 207.529 137.202 207.949C136.518 208.369 135.72 208.579 134.808 208.579ZM134.808 207.211C135.456 207.211 135.996 207.061 136.428 206.761C136.872 206.461 137.202 206.047 137.418 205.519C137.646 204.991 137.76 204.379 137.76 203.683C137.76 202.987 137.646 202.375 137.418 201.847C137.202 201.319 136.872 200.905 136.428 200.605C135.996 200.305 135.456 200.155 134.808 200.155C134.16 200.155 133.614 200.305 133.17 200.605C132.738 200.905 132.408 201.319 132.18 201.847C131.964 202.375 131.856 202.987 131.856 203.683C131.856 204.379 131.964 204.991 132.18 205.519C132.408 206.047 132.738 206.461 133.17 206.761C133.614 207.061 134.16 207.211 134.808 207.211ZM145.753 198.787C146.665 198.787 147.445 198.997 148.093 199.417C148.753 199.837 149.251 200.419 149.587 201.163C149.935 201.895 150.109 202.735 150.109 203.683C150.109 204.631 149.935 205.477 149.587 206.221C149.251 206.953 148.753 207.529 148.093 207.949C147.445 208.369 146.665 208.579 145.753 208.579C145.069 208.579 144.463 208.447 143.935 208.183C143.419 207.907 142.993 207.523 142.657 207.031V211.963H141.145V199.003H142.585V200.443C142.933 199.915 143.371 199.507 143.899 199.219C144.427 198.931 145.045 198.787 145.753 198.787ZM145.573 200.155C144.925 200.155 144.379 200.305 143.935 200.605C143.503 200.905 143.173 201.319 142.945 201.847C142.729 202.375 142.621 202.987 142.621 203.683C142.621 204.379 142.729 204.991 142.945 205.519C143.173 206.047 143.503 206.461 143.935 206.761C144.379 207.061 144.925 207.211 145.573 207.211C146.221 207.211 146.761 207.061 147.193 206.761C147.637 206.461 147.967 206.047 148.183 205.519C148.411 204.991 148.525 204.379 148.525 203.683C148.525 202.987 148.411 202.375 148.183 201.847C147.967 201.319 147.637 200.905 147.193 200.605C146.761 200.305 146.221 200.155 145.573 200.155Z" fill="#54BD64"/>
<rect x="202" y="244.5" width="38" height="38" rx="15" stroke="#54BD64"/>
<path d="M214.94 256.582V271H213.058V256.582H214.94ZM217.445 265.291C217.445 264.132 217.68 263.119 218.149 262.25C218.617 261.367 219.259 260.685 220.072 260.202C220.9 259.719 221.824 259.478 222.844 259.478C223.727 259.478 224.547 259.685 225.306 260.098C226.064 260.498 226.644 261.029 227.044 261.691V255.692H228.947V271H227.044V268.869C226.671 269.545 226.12 270.104 225.389 270.545C224.658 270.972 223.803 271.186 222.824 271.186C221.817 271.186 220.9 270.938 220.072 270.441C219.259 269.945 218.617 269.249 218.149 268.352C217.68 267.456 217.445 266.435 217.445 265.291ZM227.044 265.311C227.044 264.456 226.871 263.712 226.526 263.077C226.182 262.443 225.713 261.96 225.12 261.629C224.541 261.284 223.899 261.112 223.196 261.112C222.493 261.112 221.851 261.278 221.272 261.608C220.693 261.939 220.231 262.422 219.886 263.057C219.541 263.691 219.369 264.436 219.369 265.291C219.369 266.159 219.541 266.918 219.886 267.566C220.231 268.2 220.693 268.69 221.272 269.035C221.851 269.366 222.493 269.531 223.196 269.531C223.899 269.531 224.541 269.366 225.12 269.035C225.713 268.69 226.182 268.2 226.526 267.566C226.871 266.918 227.044 266.166 227.044 265.311Z" fill="#54BD64"/>
<path d="M249.224 257.261H250.808V270.221H249.224V257.261ZM253.141 260.861H254.581V262.211C254.917 261.731 255.337 261.353 255.841 261.077C256.345 260.789 256.927 260.645 257.587 260.645C258.343 260.645 258.967 260.807 259.459 261.131C259.963 261.455 260.329 261.881 260.557 262.409C260.797 262.925 260.917 263.477 260.917 264.065V270.221H259.423V264.209C259.423 263.537 259.243 263.003 258.883 262.607C258.523 262.211 257.995 262.013 257.299 262.013C256.975 262.013 256.609 262.085 256.201 262.229C255.805 262.373 255.445 262.667 255.121 263.111C254.809 263.555 254.653 264.179 254.653 264.983V270.221H253.141V260.861ZM263.251 257.261H267.517C268.897 257.261 270.061 257.549 271.009 258.125C271.969 258.689 272.683 259.457 273.151 260.429C273.631 261.401 273.871 262.505 273.871 263.741C273.871 264.977 273.631 266.081 273.151 267.053C272.683 268.025 271.969 268.799 271.009 269.375C270.061 269.939 268.897 270.221 267.517 270.221H263.251V257.261ZM267.517 268.781C268.573 268.781 269.449 268.565 270.145 268.133C270.853 267.701 271.375 267.107 271.711 266.351C272.047 265.595 272.215 264.725 272.215 263.741C272.215 262.757 272.047 261.887 271.711 261.131C271.375 260.375 270.853 259.781 270.145 259.349C269.449 258.917 268.573 258.701 267.517 258.701H264.835V268.781H267.517ZM279.619 270.437C278.755 270.437 277.987 270.227 277.315 269.807C276.655 269.387 276.145 268.805 275.785 268.061C275.425 267.317 275.245 266.477 275.245 265.541C275.245 264.605 275.425 263.765 275.785 263.021C276.145 262.277 276.655 261.695 277.315 261.275C277.987 260.855 278.755 260.645 279.619 260.645C280.483 260.645 281.245 260.855 281.905 261.275C282.577 261.695 283.093 262.277 283.453 263.021C283.813 263.765 283.993 264.605 283.993 265.541V266.081H276.847C276.907 266.681 277.051 267.203 277.279 267.647C277.507 268.091 277.819 268.439 278.215 268.691C278.611 268.943 279.079 269.069 279.619 269.069C280.231 269.069 280.765 268.919 281.221 268.619C281.677 268.319 282.013 267.905 282.229 267.377H283.795C283.495 268.313 282.973 269.057 282.229 269.609C281.497 270.161 280.627 270.437 279.619 270.437ZM282.355 264.713C282.235 263.885 281.941 263.231 281.473 262.751C281.005 262.259 280.387 262.013 279.619 262.013C278.851 262.013 278.233 262.259 277.765 262.751C277.297 263.231 277.003 263.885 276.883 264.713H282.355ZM289.096 270.437C287.92 270.437 286.972 270.167 286.252 269.627C285.544 269.075 285.16 268.253 285.1 267.161H286.63C286.702 267.857 286.936 268.361 287.332 268.673C287.74 268.973 288.328 269.123 289.096 269.123C289.792 269.123 290.332 269.003 290.716 268.763C291.112 268.511 291.31 268.163 291.31 267.719C291.31 267.419 291.256 267.185 291.148 267.017C291.04 266.837 290.818 266.681 290.482 266.549C290.146 266.417 289.636 266.297 288.952 266.189C288.028 266.033 287.302 265.829 286.774 265.577C286.258 265.313 285.898 265.001 285.694 264.641C285.49 264.281 285.388 263.837 285.388 263.309C285.388 262.505 285.706 261.863 286.342 261.383C286.99 260.891 287.818 260.645 288.826 260.645C290.014 260.645 290.944 260.915 291.616 261.455C292.3 261.995 292.648 262.757 292.66 263.741H291.148C291.124 263.081 290.908 262.619 290.5 262.355C290.092 262.091 289.534 261.959 288.826 261.959C288.274 261.959 287.812 262.079 287.44 262.319C287.08 262.547 286.9 262.871 286.9 263.291C286.9 263.591 286.966 263.831 287.098 264.011C287.23 264.179 287.464 264.323 287.8 264.443C288.148 264.563 288.658 264.683 289.33 264.803C290.242 264.959 290.95 265.157 291.454 265.397C291.958 265.637 292.312 265.937 292.516 266.297C292.732 266.645 292.84 267.089 292.84 267.629C292.84 268.505 292.492 269.195 291.796 269.699C291.1 270.191 290.2 270.437 289.096 270.437ZM294.344 260.861H295.856V270.221H294.344V260.861ZM294.344 257.261H295.856V259.097H294.344V257.261ZM302.158 274.037C300.934 274.037 299.98 273.767 299.296 273.227C298.612 272.687 298.216 271.931 298.108 270.959H299.602C299.71 271.583 299.98 272.033 300.412 272.309C300.844 272.597 301.426 272.741 302.158 272.741C303.01 272.741 303.706 272.537 304.246 272.129C304.798 271.733 305.074 271.013 305.074 269.969V268.889C304.738 269.381 304.306 269.765 303.778 270.041C303.262 270.305 302.662 270.437 301.978 270.437C301.066 270.437 300.28 270.227 299.62 269.807C298.972 269.387 298.474 268.811 298.125 268.079C297.79 267.335 297.622 266.489 297.622 265.541C297.622 264.593 297.79 263.753 298.125 263.021C298.474 262.277 298.972 261.695 299.62 261.275C300.28 260.855 301.066 260.645 301.978 260.645C302.686 260.645 303.304 260.789 303.832 261.077C304.36 261.365 304.798 261.773 305.146 262.301V260.861H306.586V269.969C306.586 270.893 306.394 271.655 306.01 272.255C305.626 272.867 305.104 273.317 304.444 273.605C303.784 273.893 303.022 274.037 302.158 274.037ZM302.158 269.069C302.806 269.069 303.346 268.919 303.778 268.619C304.222 268.319 304.552 267.905 304.768 267.377C304.996 266.849 305.11 266.237 305.11 265.541C305.11 264.845 304.996 264.233 304.768 263.705C304.552 263.177 304.222 262.763 303.778 262.463C303.346 262.163 302.806 262.013 302.158 262.013C301.51 262.013 300.964 262.163 300.52 262.463C300.088 262.763 299.758 263.177 299.53 263.705C299.314 264.233 299.206 264.845 299.206 265.541C299.206 266.237 299.314 266.849 299.53 267.377C299.758 267.905 300.088 268.319 300.52 268.619C300.964 268.919 301.51 269.069 302.158 269.069ZM308.811 260.861H310.251V262.211C310.587 261.731 311.007 261.353 311.511 261.077C312.015 260.789 312.597 260.645 313.257 260.645C314.013 260.645 314.637 260.807 315.129 261.131C315.633 261.455 315.999 261.881 316.227 262.409C316.467 262.925 316.587 263.477 316.587 264.065V270.221H315.093V264.209C315.093 263.537 314.913 263.003 314.553 262.607C314.193 262.211 313.665 262.013 312.969 262.013C312.645 262.013 312.279 262.085 311.871 262.229C311.475 262.373 311.115 262.667 310.791 263.111C310.479 263.555 310.323 264.179 310.323 264.983V270.221H308.811V260.861Z" fill="#54BD64"/>
<rect x="202" y="306.355" width="38" height="38" rx="15" stroke="#54BD64"/>
<path d="M223.356 324.855L227.77 317.234L229.902 324.855L227.77 332.474L223.356 324.855ZM221.205 326.092L225.619 333.712L217.932 331.743L212.378 326.092H221.205ZM225.618 315.995L221.205 323.616H212.378L217.932 317.965L225.618 315.995ZM231.919 322.261L229.226 312.244L219.177 314.929L217.689 317.544L214.67 317.523L207.314 324.855L214.67 332.186H214.671L217.688 332.164L219.178 334.779L229.226 337.464L231.919 327.448L230.39 324.855L231.919 322.261Z" fill="#54BD64"/>
<path d="M254.12 332.292C253.04 332.292 252.122 332.1 251.366 331.716C250.61 331.32 250.034 330.744 249.638 329.988C249.242 329.232 249.044 328.314 249.044 327.234V319.116H250.628V327.234C250.628 328.47 250.922 329.382 251.51 329.97C252.11 330.558 252.98 330.852 254.12 330.852C255.26 330.852 256.124 330.558 256.712 329.97C257.312 329.382 257.612 328.47 257.612 327.234V319.116H259.196V327.234C259.196 328.314 258.998 329.232 258.602 329.988C258.206 330.744 257.63 331.32 256.874 331.716C256.118 332.1 255.2 332.292 254.12 332.292ZM261.35 322.716H262.79V324.066C263.126 323.586 263.546 323.208 264.05 322.932C264.554 322.644 265.136 322.5 265.796 322.5C266.552 322.5 267.176 322.662 267.668 322.986C268.172 323.31 268.538 323.736 268.766 324.264C269.006 324.78 269.126 325.332 269.126 325.92V332.076H267.632V326.064C267.632 325.392 267.452 324.858 267.092 324.462C266.732 324.066 266.204 323.868 265.508 323.868C265.184 323.868 264.818 323.94 264.41 324.084C264.014 324.228 263.654 324.522 263.33 324.966C263.018 325.41 262.862 326.034 262.862 326.838V332.076H261.35V322.716ZM271.316 322.716H272.828V332.076H271.316V322.716ZM271.316 319.116H272.828V320.952H271.316V319.116ZM278.158 332.076C277.618 332.076 277.186 332.004 276.862 331.86C276.55 331.704 276.322 331.47 276.178 331.158C276.034 330.846 275.962 330.444 275.962 329.952V324.048H274.234V322.716H275.962V319.836H277.474V322.716H279.994V324.048H277.474V329.772C277.474 330.108 277.552 330.354 277.708 330.51C277.864 330.666 278.11 330.744 278.446 330.744H279.994V332.076H278.158ZM281.006 334.344H282.41C282.686 334.344 282.902 334.308 283.058 334.236C283.226 334.164 283.358 334.05 283.454 333.894C283.55 333.75 283.652 333.534 283.76 333.246L284.21 332.058L280.646 322.716H282.284L284.984 330.204L287.684 322.716H289.322L285.182 333.624C285.002 334.092 284.828 334.464 284.66 334.74C284.504 335.016 284.288 335.238 284.012 335.406C283.748 335.586 283.4 335.676 282.968 335.676H281.006V334.344Z" fill="#54BD64"/>
<rect x="202" y="430.07" width="38" height="38" rx="15" stroke="#54BD64"/>
<path d="M221 438.412L210.438 443.693V454.446L221 459.728L231.562 454.446V443.693L221 438.412ZM221 440.228L229.938 444.696V453.443L221 457.912L212.062 453.443V444.696L221 440.228ZM218.562 444.195C215.881 444.195 213.688 446.388 213.688 449.07C213.688 451.752 215.881 453.945 218.562 453.945C219.781 453.945 220.921 453.456 221.733 452.726L220.349 451.752C219.861 452.075 219.213 452.32 218.562 452.32C216.776 452.32 215.312 450.857 215.312 449.07C215.312 447.283 216.776 445.82 218.562 445.82C219.213 445.82 219.861 446.064 220.349 446.388L221.733 445.414C220.921 444.684 219.781 444.195 218.562 444.195ZM222.625 445.82V446.632H221.812V448.257H222.625V449.882H221.812V451.507H222.625V452.32H224.25V451.507H225.875V452.32H227.5V451.507H228.312V449.882H227.5V448.257H228.312V446.632H227.5V445.82H225.875V446.632H224.25V445.82H222.625ZM224.25 448.257H225.875V449.882H224.25V448.257Z" fill="#54BD64"/>
<path d="M253.858 456.007C252.538 456.007 251.41 455.707 250.474 455.107C249.55 454.507 248.854 453.703 248.386 452.695C247.918 451.675 247.684 450.547 247.684 449.311C247.684 448.075 247.918 446.953 248.386 445.945C248.854 444.925 249.55 444.115 250.474 443.515C251.41 442.915 252.538 442.615 253.858 442.615C254.818 442.615 255.67 442.807 256.414 443.191C257.17 443.575 257.782 444.109 258.25 444.793C258.718 445.477 259.03 446.251 259.186 447.115H257.566C257.458 446.515 257.236 445.987 256.9 445.531C256.564 445.075 256.132 444.721 255.604 444.469C255.088 444.217 254.506 444.091 253.858 444.091C252.862 444.091 252.022 444.325 251.338 444.793C250.666 445.249 250.162 445.873 249.826 446.665C249.502 447.445 249.34 448.327 249.34 449.311C249.34 450.295 249.502 451.183 249.826 451.975C250.162 452.755 250.666 453.379 251.338 453.847C252.022 454.303 252.862 454.531 253.858 454.531C254.554 454.531 255.172 454.387 255.712 454.099C256.264 453.799 256.708 453.391 257.044 452.875C257.38 452.347 257.59 451.747 257.674 451.075H259.276C259.156 452.011 258.862 452.857 258.394 453.613C257.938 454.357 257.32 454.945 256.54 455.377C255.76 455.797 254.866 456.007 253.858 456.007ZM262.403 452.047H260.531L260.783 450.751H262.655L263.231 447.871H261.359L261.611 446.575H263.483L264.203 442.831H265.715L264.995 446.575H267.875L268.595 442.831H270.107L269.387 446.575H271.259L271.007 447.871H269.135L268.559 450.751H270.431L270.179 452.047H268.307L267.587 455.791H266.075L266.795 452.047H263.915L263.195 455.791H261.683L262.403 452.047ZM267.047 450.751L267.623 447.871H264.743L264.167 450.751H267.047Z" fill="#54BD64"/>
<rect x="202" y="182.643" width="38" height="38" rx="15" stroke="#54BD64"/>
<path d="M222.384 198.944C222.384 200.144 221.971 201.144 221.143 201.944C220.33 202.73 219.082 203.123 217.399 203.123H214.627V209.143H212.745V194.724H217.399C219.026 194.724 220.261 195.117 221.102 195.903C221.957 196.69 222.384 197.703 222.384 198.944ZM217.399 201.571C218.447 201.571 219.219 201.344 219.716 200.889C220.212 200.434 220.461 199.786 220.461 198.944C220.461 197.165 219.44 196.276 217.399 196.276H214.627V201.571H217.399ZM226.607 199.648C226.937 198.999 227.406 198.496 228.013 198.138C228.634 197.779 229.385 197.6 230.268 197.6V199.544H229.771C227.662 199.544 226.607 200.689 226.607 202.978V209.143H224.724V197.807H226.607V199.648Z" fill="#54BD64"/>
<path d="M249.224 195.403H254.408C255.392 195.403 256.214 195.583 256.874 195.943C257.546 196.291 258.044 196.765 258.368 197.365C258.704 197.965 258.872 198.637 258.872 199.381C258.872 200.125 258.704 200.797 258.368 201.397C258.044 201.997 257.546 202.477 256.874 202.837C256.214 203.185 255.392 203.359 254.408 203.359H250.808V208.363H249.224V195.403ZM254.408 201.919C255.356 201.919 256.064 201.691 256.532 201.235C257 200.767 257.234 200.149 257.234 199.381C257.234 198.613 257 198.001 256.532 197.545C256.064 197.077 255.356 196.843 254.408 196.843H250.808V201.919H254.408ZM260.63 199.003H262.07V200.569C262.418 199.945 262.844 199.513 263.348 199.273C263.852 199.021 264.422 198.895 265.058 198.895H265.76V200.353H265.022C264.458 200.353 263.96 200.449 263.528 200.641C263.108 200.821 262.772 201.133 262.52 201.577C262.268 202.021 262.142 202.615 262.142 203.359V208.363H260.63V199.003ZM271.322 208.579C270.458 208.579 269.69 208.369 269.018 207.949C268.358 207.529 267.848 206.947 267.488 206.203C267.128 205.459 266.948 204.619 266.948 203.683C266.948 202.747 267.128 201.907 267.488 201.163C267.848 200.419 268.358 199.837 269.018 199.417C269.69 198.997 270.458 198.787 271.322 198.787C272.186 198.787 272.948 198.997 273.608 199.417C274.28 199.837 274.796 200.419 275.156 201.163C275.516 201.907 275.696 202.747 275.696 203.683V204.223H268.55C268.61 204.823 268.754 205.345 268.982 205.789C269.21 206.233 269.522 206.581 269.918 206.833C270.314 207.085 270.782 207.211 271.322 207.211C271.934 207.211 272.468 207.061 272.924 206.761C273.38 206.461 273.716 206.047 273.932 205.519H275.498C275.198 206.455 274.676 207.199 273.932 207.751C273.2 208.303 272.33 208.579 271.322 208.579ZM274.058 202.855C273.938 202.027 273.644 201.373 273.176 200.893C272.708 200.401 272.09 200.155 271.322 200.155C270.554 200.155 269.936 200.401 269.468 200.893C269 201.373 268.706 202.027 268.586 202.855H274.058ZM277.487 199.003H278.927V200.335C279.203 199.855 279.569 199.477 280.025 199.201C280.493 198.925 281.057 198.787 281.717 198.787C282.413 198.787 282.995 198.955 283.463 199.291C283.931 199.615 284.285 200.053 284.525 200.605C284.825 200.053 285.227 199.615 285.731 199.291C286.247 198.955 286.859 198.787 287.567 198.787C288.251 198.787 288.827 198.955 289.295 199.291C289.775 199.615 290.129 200.041 290.357 200.569C290.585 201.085 290.699 201.631 290.699 202.207V208.363H289.187V202.351C289.187 201.691 289.019 201.163 288.683 200.767C288.347 200.359 287.879 200.155 287.279 200.155C286.727 200.155 286.181 200.365 285.641 200.785C285.113 201.193 284.849 201.973 284.849 203.125V208.363H283.337V202.351C283.337 201.691 283.169 201.163 282.833 200.767C282.497 200.359 282.029 200.155 281.429 200.155C280.877 200.155 280.331 200.365 279.791 200.785C279.263 201.193 278.999 201.973 278.999 203.125V208.363H277.487V199.003ZM292.902 199.003H294.414V208.363H292.902V199.003ZM292.902 195.403H294.414V197.239H292.902V195.403ZM300.554 208.579C299.69 208.579 298.922 208.369 298.25 207.949C297.59 207.529 297.08 206.947 296.72 206.203C296.36 205.459 296.18 204.619 296.18 203.683C296.18 202.747 296.36 201.907 296.72 201.163C297.08 200.419 297.59 199.837 298.25 199.417C298.922 198.997 299.69 198.787 300.554 198.787C301.418 198.787 302.18 198.997 302.84 199.417C303.512 199.837 304.028 200.419 304.388 201.163C304.748 201.907 304.928 202.747 304.928 203.683V204.223H297.782C297.842 204.823 297.986 205.345 298.214 205.789C298.442 206.233 298.754 206.581 299.15 206.833C299.546 207.085 300.014 207.211 300.554 207.211C301.166 207.211 301.7 207.061 302.156 206.761C302.612 206.461 302.948 206.047 303.164 205.519H304.73C304.43 206.455 303.908 207.199 303.164 207.751C302.432 208.303 301.562 208.579 300.554 208.579ZM303.29 202.855C303.17 202.027 302.876 201.373 302.408 200.893C301.94 200.401 301.322 200.155 300.554 200.155C299.786 200.155 299.168 200.401 298.7 200.893C298.232 201.373 297.938 202.027 297.818 202.855H303.29ZM306.72 199.003H308.16V200.569C308.508 199.945 308.934 199.513 309.438 199.273C309.942 199.021 310.512 198.895 311.148 198.895H311.85V200.353H311.112C310.548 200.353 310.05 200.449 309.618 200.641C309.198 200.821 308.862 201.133 308.61 201.577C308.358 202.021 308.232 202.615 308.232 203.359V208.363H306.72V199.003ZM317.412 208.579C316.548 208.579 315.78 208.369 315.108 207.949C314.448 207.529 313.938 206.947 313.578 206.203C313.218 205.459 313.038 204.619 313.038 203.683C313.038 202.747 313.218 201.907 313.578 201.163C313.938 200.419 314.448 199.837 315.108 199.417C315.78 198.997 316.548 198.787 317.412 198.787C318.276 198.787 319.038 198.997 319.698 199.417C320.37 199.837 320.886 200.419 321.246 201.163C321.606 201.907 321.786 202.747 321.786 203.683V204.223H314.64C314.7 204.823 314.844 205.345 315.072 205.789C315.3 206.233 315.612 206.581 316.008 206.833C316.404 207.085 316.872 207.211 317.412 207.211C318.024 207.211 318.558 207.061 319.014 206.761C319.47 206.461 319.806 206.047 320.022 205.519H321.588C321.288 206.455 320.766 207.199 320.022 207.751C319.29 208.303 318.42 208.579 317.412 208.579ZM320.148 202.855C320.028 202.027 319.734 201.373 319.266 200.893C318.798 200.401 318.18 200.155 317.412 200.155C316.644 200.155 316.026 200.401 315.558 200.893C315.09 201.373 314.796 202.027 314.676 202.855H320.148ZM327.183 195.403H332.367C333.351 195.403 334.173 195.583 334.833 195.943C335.505 196.291 336.003 196.765 336.327 197.365C336.663 197.965 336.831 198.637 336.831 199.381C336.831 200.125 336.663 200.797 336.327 201.397C336.003 201.997 335.505 202.477 334.833 202.837C334.173 203.185 333.351 203.359 332.367 203.359H328.767V208.363H327.183V195.403ZM332.367 201.919C333.315 201.919 334.023 201.691 334.491 201.235C334.959 200.767 335.193 200.149 335.193 199.381C335.193 198.613 334.959 198.001 334.491 197.545C334.023 197.077 333.315 196.843 332.367 196.843H328.767V201.919H332.367ZM338.589 199.003H340.029V200.569C340.377 199.945 340.803 199.513 341.307 199.273C341.811 199.021 342.381 198.895 343.017 198.895H343.719V200.353H342.981C342.417 200.353 341.919 200.449 341.487 200.641C341.067 200.821 340.731 201.133 340.479 201.577C340.227 202.021 340.101 202.615 340.101 203.359V208.363H338.589V199.003ZM349.443 208.579C348.531 208.579 347.727 208.369 347.031 207.949C346.347 207.529 345.819 206.947 345.447 206.203C345.087 205.459 344.907 204.619 344.907 203.683C344.907 202.747 345.087 201.907 345.447 201.163C345.819 200.419 346.347 199.837 347.031 199.417C347.727 198.997 348.531 198.787 349.443 198.787C350.355 198.787 351.153 198.997 351.837 199.417C352.533 199.837 353.061 200.419 353.421 201.163C353.793 201.907 353.979 202.747 353.979 203.683C353.979 204.619 353.793 205.459 353.421 206.203C353.061 206.947 352.533 207.529 351.837 207.949C351.153 208.369 350.355 208.579 349.443 208.579ZM349.443 207.211C350.091 207.211 350.631 207.061 351.063 206.761C351.507 206.461 351.837 206.047 352.053 205.519C352.281 204.991 352.395 204.379 352.395 203.683C352.395 202.987 352.281 202.375 352.053 201.847C351.837 201.319 351.507 200.905 351.063 200.605C350.631 200.305 350.091 200.155 349.443 200.155C348.795 200.155 348.249 200.305 347.805 200.605C347.373 200.905 347.043 201.319 346.815 201.847C346.599 202.375 346.491 202.987 346.491 203.683C346.491 204.379 346.599 204.991 346.815 205.519C347.043 206.047 347.373 206.461 347.805 206.761C348.249 207.061 348.795 207.211 349.443 207.211Z" fill="#54BD64"/>
<rect x="16" y="244.5" width="38" height="38" rx="15" stroke="#54BD64"/>
<path d="M35.6007 267.794H29.3121L28.1537 271H26.1678L31.3807 256.664H33.5528L38.745 271H36.7591L35.6007 267.794ZM35.0629 266.263L32.4564 258.981L29.85 266.263H35.0629ZM41.9892 257.823C41.6306 257.823 41.3272 257.699 41.079 257.451C40.8307 257.202 40.7066 256.899 40.7066 256.54C40.7066 256.182 40.8307 255.878 41.079 255.63C41.3272 255.382 41.6306 255.258 41.9892 255.258C42.3339 255.258 42.6235 255.382 42.858 255.63C43.1062 255.878 43.2303 256.182 43.2303 256.54C43.2303 256.899 43.1062 257.202 42.858 257.451C42.6235 257.699 42.3339 257.823 41.9892 257.823ZM42.8994 259.664V271H41.0169V259.664H42.8994Z" fill="#54BD64"/>
<path d="M65.224 257.261H66.808V270.221H65.224V257.261ZM70.6534 257.261V267.917C70.6534 268.253 70.7314 268.499 70.8874 268.655C71.0434 268.811 71.2894 268.889 71.6254 268.889H72.8854V270.221H71.3374C70.7974 270.221 70.3654 270.149 70.0414 270.005C69.7294 269.849 69.5014 269.615 69.3574 269.303C69.2134 268.991 69.1414 268.589 69.1414 268.097V257.261H70.6534ZM76.0147 257.261V267.917C76.0147 268.253 76.0927 268.499 76.2487 268.655C76.4047 268.811 76.6507 268.889 76.9867 268.889H78.2467V270.221H76.6987C76.1587 270.221 75.7267 270.149 75.4027 270.005C75.0907 269.849 74.8627 269.615 74.7187 269.303C74.5747 268.991 74.5027 268.589 74.5027 268.097V257.261H76.0147ZM87.64 270.221H86.2V268.871C85.864 269.351 85.444 269.735 84.94 270.023C84.436 270.299 83.854 270.437 83.194 270.437C82.438 270.437 81.808 270.275 81.304 269.951C80.812 269.627 80.446 269.207 80.206 268.691C79.978 268.163 79.864 267.605 79.864 267.017V260.861H81.358V266.873C81.358 267.545 81.538 268.079 81.898 268.475C82.258 268.871 82.786 269.069 83.482 269.069C83.806 269.069 84.166 268.997 84.562 268.853C84.97 268.709 85.33 268.415 85.642 267.971C85.966 267.527 86.128 266.903 86.128 266.099V260.861H87.64V270.221ZM93.178 270.437C92.002 270.437 91.054 270.167 90.334 269.627C89.626 269.075 89.242 268.253 89.182 267.161H90.712C90.784 267.857 91.018 268.361 91.414 268.673C91.822 268.973 92.41 269.123 93.178 269.123C93.874 269.123 94.414 269.003 94.798 268.763C95.194 268.511 95.392 268.163 95.392 267.719C95.392 267.419 95.338 267.185 95.23 267.017C95.122 266.837 94.9 266.681 94.564 266.549C94.228 266.417 93.718 266.297 93.034 266.189C92.11 266.033 91.384 265.829 90.856 265.577C90.34 265.313 89.98 265.001 89.776 264.641C89.572 264.281 89.47 263.837 89.47 263.309C89.47 262.505 89.788 261.863 90.424 261.383C91.072 260.891 91.9 260.645 92.908 260.645C94.096 260.645 95.026 260.915 95.698 261.455C96.382 261.995 96.73 262.757 96.742 263.741H95.23C95.206 263.081 94.99 262.619 94.582 262.355C94.174 262.091 93.616 261.959 92.908 261.959C92.356 261.959 91.894 262.079 91.522 262.319C91.162 262.547 90.982 262.871 90.982 263.291C90.982 263.591 91.048 263.831 91.18 264.011C91.312 264.179 91.546 264.323 91.882 264.443C92.23 264.563 92.74 264.683 93.412 264.803C94.324 264.959 95.032 265.157 95.536 265.397C96.04 265.637 96.394 265.937 96.598 266.297C96.814 266.645 96.922 267.089 96.922 267.629C96.922 268.505 96.574 269.195 95.878 269.699C95.182 270.191 94.282 270.437 93.178 270.437ZM101.594 270.221C101.054 270.221 100.622 270.149 100.298 270.005C99.9857 269.849 99.7577 269.615 99.6137 269.303C99.4697 268.991 99.3977 268.589 99.3977 268.097V262.193H97.6697V260.861H99.3977V257.981H100.91V260.861H103.43V262.193H100.91V267.917C100.91 268.253 100.988 268.499 101.144 268.655C101.3 268.811 101.546 268.889 101.882 268.889H103.43V270.221H101.594ZM105.054 260.861H106.494V262.427C106.842 261.803 107.268 261.371 107.772 261.131C108.276 260.879 108.846 260.753 109.482 260.753H110.184V262.211H109.446C108.882 262.211 108.384 262.307 107.952 262.499C107.532 262.679 107.196 262.991 106.944 263.435C106.692 263.879 106.566 264.473 106.566 265.217V270.221H105.054V260.861ZM114.648 270.437C113.592 270.437 112.764 270.197 112.164 269.717C111.564 269.237 111.264 268.559 111.264 267.683C111.264 267.143 111.396 266.681 111.66 266.297C111.924 265.913 112.302 265.595 112.794 265.343C113.298 265.091 113.91 264.899 114.63 264.767L117.564 264.209V263.489C117.564 262.949 117.39 262.565 117.042 262.337C116.694 262.097 116.184 261.977 115.512 261.977C114.852 261.977 114.294 262.109 113.838 262.373C113.382 262.637 113.136 263.093 113.1 263.741H111.588C111.624 262.685 112.008 261.905 112.74 261.401C113.484 260.897 114.408 260.645 115.512 260.645C116.688 260.645 117.57 260.885 118.158 261.365C118.746 261.833 119.04 262.493 119.04 263.345V270.221H117.636V269.051C117.252 269.543 116.808 269.897 116.304 270.113C115.8 270.329 115.248 270.437 114.648 270.437ZM114.72 269.105C115.2 269.105 115.656 269.015 116.088 268.835C116.52 268.643 116.874 268.355 117.15 267.971C117.426 267.575 117.564 267.089 117.564 266.513V265.487L114.846 266.045C114.15 266.189 113.64 266.369 113.316 266.585C112.992 266.801 112.83 267.155 112.83 267.647C112.83 268.103 112.986 268.463 113.298 268.727C113.61 268.979 114.084 269.105 114.72 269.105ZM124.146 270.221C123.606 270.221 123.174 270.149 122.85 270.005C122.538 269.849 122.31 269.615 122.166 269.303C122.022 268.991 121.95 268.589 121.95 268.097V262.193H120.222V260.861H121.95V257.981H123.462V260.861H125.982V262.193H123.462V267.917C123.462 268.253 123.54 268.499 123.696 268.655C123.852 268.811 124.098 268.889 124.434 268.889H125.982V270.221H124.146ZM131.71 270.437C130.798 270.437 129.994 270.227 129.298 269.807C128.614 269.387 128.086 268.805 127.714 268.061C127.354 267.317 127.174 266.477 127.174 265.541C127.174 264.605 127.354 263.765 127.714 263.021C128.086 262.277 128.614 261.695 129.298 261.275C129.994 260.855 130.798 260.645 131.71 260.645C132.622 260.645 133.42 260.855 134.104 261.275C134.8 261.695 135.328 262.277 135.688 263.021C136.06 263.765 136.246 264.605 136.246 265.541C136.246 266.477 136.06 267.317 135.688 268.061C135.328 268.805 134.8 269.387 134.104 269.807C133.42 270.227 132.622 270.437 131.71 270.437ZM131.71 269.069C132.358 269.069 132.898 268.919 133.33 268.619C133.774 268.319 134.104 267.905 134.32 267.377C134.548 266.849 134.662 266.237 134.662 265.541C134.662 264.845 134.548 264.233 134.32 263.705C134.104 263.177 133.774 262.763 133.33 262.463C132.898 262.163 132.358 262.013 131.71 262.013C131.062 262.013 130.516 262.163 130.072 262.463C129.64 262.763 129.31 263.177 129.082 263.705C128.866 264.233 128.758 264.845 128.758 265.541C128.758 266.237 128.866 266.849 129.082 267.377C129.31 267.905 129.64 268.319 130.072 268.619C130.516 268.919 131.062 269.069 131.71 269.069ZM138.048 260.861H139.488V262.427C139.836 261.803 140.262 261.371 140.766 261.131C141.27 260.879 141.84 260.753 142.476 260.753H143.178V262.211H142.44C141.876 262.211 141.378 262.307 140.946 262.499C140.526 262.679 140.19 262.991 139.938 263.435C139.686 263.879 139.56 264.473 139.56 265.217V270.221H138.048V260.861Z" fill="#54BD64"/>
<rect x="16" y="306.355" width="38" height="38" rx="15" stroke="#54BD64"/>
<path fill-rule="evenodd" clip-rule="evenodd" d="M34.1569 316.211H31.6707C30.2977 316.211 29.1846 317.324 29.1846 318.697C29.1846 320.07 30.2977 321.183 31.6707 321.183H34.1569V316.211ZM34.1569 314.525H35.8424H38.3286C40.6327 314.525 42.5002 316.393 42.5002 318.697C42.5002 320.057 41.85 321.264 40.8432 322.026C41.85 322.788 42.5002 323.995 42.5002 325.355C42.5002 327.659 40.6327 329.527 38.3286 329.527C37.397 329.527 36.5368 329.221 35.8424 328.705V329.527V332.013C35.8424 334.317 33.9747 336.185 31.6707 336.185C29.3668 336.185 27.499 334.317 27.499 332.013C27.499 330.653 28.1494 329.446 29.1561 328.684C28.1494 327.922 27.499 326.715 27.499 325.355C27.499 323.995 28.1495 322.788 29.1561 322.026C28.1495 321.264 27.499 320.057 27.499 318.697C27.499 316.393 29.3668 314.525 31.6707 314.525H34.1569ZM35.8424 316.211V321.183H38.3286C39.7017 321.183 40.8147 320.07 40.8147 318.697C40.8147 317.324 39.7017 316.211 38.3286 316.211H35.8424ZM31.6707 327.841H34.1569V325.361V325.355V325.349V322.869H31.6707C30.2977 322.869 29.1846 323.982 29.1846 325.355C29.1846 326.725 30.2923 327.836 31.6609 327.841L31.6707 327.841ZM29.1846 332.013C29.1846 330.643 30.2923 329.532 31.6609 329.527L31.6707 329.527H34.1569V332.013C34.1569 333.386 33.0438 334.499 31.6707 334.499C30.2977 334.499 29.1846 333.386 29.1846 332.013ZM35.8424 325.35C35.8451 323.979 36.9572 322.869 38.3286 322.869C39.7017 322.869 40.8147 323.982 40.8147 325.355C40.8147 326.728 39.7017 327.841 38.3286 327.841C36.9572 327.841 35.8451 326.731 35.8424 325.36V325.35Z" fill="#54BD64"/>
<path d="M62.224 319.116H70.9V320.556H63.808V324.588H70.54V326.028H63.808V332.076H62.224V319.116ZM72.3808 322.716H73.8928V332.076H72.3808V322.716ZM72.3808 319.116H73.8928V320.952H72.3808V319.116ZM80.1946 335.892C78.9706 335.892 78.0166 335.622 77.3326 335.082C76.6486 334.542 76.2526 333.786 76.1446 332.814H77.6386C77.7466 333.438 78.0166 333.888 78.4486 334.164C78.8806 334.452 79.4626 334.596 80.1946 334.596C81.0466 334.596 81.7426 334.392 82.2826 333.984C82.8346 333.588 83.1106 332.868 83.1106 331.824V330.744C82.7746 331.236 82.3426 331.62 81.8146 331.896C81.2986 332.16 80.6986 332.292 80.0146 332.292C79.1026 332.292 78.3166 332.082 77.6566 331.662C77.0086 331.242 76.5106 330.666 76.1626 329.934C75.8266 329.19 75.6586 328.344 75.6586 327.396C75.6586 326.448 75.8266 325.608 76.1626 324.876C76.5106 324.132 77.0086 323.55 77.6566 323.13C78.3166 322.71 79.1026 322.5 80.0146 322.5C80.7226 322.5 81.3406 322.644 81.8686 322.932C82.3966 323.22 82.8346 323.628 83.1826 324.156V322.716H84.6226V331.824C84.6226 332.748 84.4306 333.51 84.0466 334.11C83.6626 334.722 83.1406 335.172 82.4806 335.46C81.8206 335.748 81.0586 335.892 80.1946 335.892ZM80.1946 330.924C80.8426 330.924 81.3826 330.774 81.8146 330.474C82.2586 330.174 82.5886 329.76 82.8046 329.232C83.0326 328.704 83.1466 328.092 83.1466 327.396C83.1466 326.7 83.0326 326.088 82.8046 325.56C82.5886 325.032 82.2586 324.618 81.8146 324.318C81.3826 324.018 80.8426 323.868 80.1946 323.868C79.5466 323.868 79.0006 324.018 78.5566 324.318C78.1246 324.618 77.7946 325.032 77.5666 325.56C77.3506 326.088 77.2426 326.7 77.2426 327.396C77.2426 328.092 77.3506 328.704 77.5666 329.232C77.7946 329.76 78.1246 330.174 78.5566 330.474C79.0006 330.774 79.5466 330.924 80.1946 330.924ZM86.8484 322.716H88.2884V324.048C88.5644 323.568 88.9304 323.19 89.3864 322.914C89.8544 322.638 90.4184 322.5 91.0784 322.5C91.7744 322.5 92.3564 322.668 92.8244 323.004C93.2924 323.328 93.6464 323.766 93.8864 324.318C94.1864 323.766 94.5884 323.328 95.0924 323.004C95.6084 322.668 96.2204 322.5 96.9284 322.5C97.6124 322.5 98.1884 322.668 98.6564 323.004C99.1364 323.328 99.4904 323.754 99.7184 324.282C99.9464 324.798 100.06 325.344 100.06 325.92V332.076H98.5484V326.064C98.5484 325.404 98.3804 324.876 98.0444 324.48C97.7084 324.072 97.2404 323.868 96.6404 323.868C96.0884 323.868 95.5424 324.078 95.0024 324.498C94.4744 324.906 94.2104 325.686 94.2104 326.838V332.076H92.6984V326.064C92.6984 325.404 92.5304 324.876 92.1944 324.48C91.8584 324.072 91.3904 323.868 90.7904 323.868C90.2384 323.868 89.6924 324.078 89.1524 324.498C88.6244 324.906 88.3604 325.686 88.3604 326.838V332.076H86.8484V322.716ZM105.144 332.292C104.088 332.292 103.26 332.052 102.66 331.572C102.06 331.092 101.76 330.414 101.76 329.538C101.76 328.998 101.892 328.536 102.156 328.152C102.42 327.768 102.798 327.45 103.29 327.198C103.794 326.946 104.406 326.754 105.126 326.622L108.06 326.064V325.344C108.06 324.804 107.886 324.42 107.538 324.192C107.19 323.952 106.68 323.832 106.008 323.832C105.348 323.832 104.79 323.964 104.334 324.228C103.878 324.492 103.632 324.948 103.596 325.596H102.084C102.12 324.54 102.504 323.76 103.236 323.256C103.98 322.752 104.904 322.5 106.008 322.5C107.184 322.5 108.066 322.74 108.654 323.22C109.242 323.688 109.536 324.348 109.536 325.2V332.076H108.132V330.906C107.748 331.398 107.304 331.752 106.8 331.968C106.296 332.184 105.744 332.292 105.144 332.292ZM105.216 330.96C105.696 330.96 106.152 330.87 106.584 330.69C107.016 330.498 107.37 330.21 107.646 329.826C107.922 329.43 108.06 328.944 108.06 328.368V327.342L105.342 327.9C104.646 328.044 104.136 328.224 103.812 328.44C103.488 328.656 103.326 329.01 103.326 329.502C103.326 329.958 103.482 330.318 103.794 330.582C104.106 330.834 104.58 330.96 105.216 330.96Z" fill="#54BD64"/>
<rect x="16" y="368.213" width="38" height="38" rx="15" stroke="#54BD64"/>
<path d="M26 377.453C26 377.587 26.3472 381.503 26.7766 386.158C27.197 390.804 27.5624 394.747 27.5716 394.916L27.599 395.219L31.2995 396.216L34.9909 397.213L35.731 397.017C36.133 396.91 37.7868 396.465 39.4132 396.029C41.935 395.353 42.3645 395.21 42.401 395.059C42.4467 394.845 44 377.694 44 377.409V377.213H26V377.453ZM40.6832 381.236C40.6467 381.45 40.4091 383.977 40.1533 386.87C39.8883 389.754 39.669 392.139 39.6508 392.157C39.6142 392.202 35.1279 393.412 35 393.412C34.9086 393.412 32.4599 392.763 30.7878 392.3L30.3218 392.166L30.2122 390.991C30.1574 390.342 30.0843 389.558 30.0477 389.247L29.9929 388.695H31.135C32.4234 388.695 32.3868 388.677 32.3959 389.451C32.3959 389.647 32.4234 389.95 32.4508 390.128L32.5056 390.448L33.7574 390.769L35 391.089L36.2335 390.769C36.9096 390.591 37.4761 390.439 37.4761 390.439C37.4853 390.431 37.5401 389.905 37.5949 389.273C37.6497 388.633 37.7137 388.01 37.7411 387.867L37.7868 387.627H29.9472L29.9015 387.422C29.8741 387.315 29.8193 386.799 29.7827 386.265L29.7188 385.313H37.9513L38.0061 384.707C38.0426 384.378 38.0975 383.871 38.1249 383.586C38.1614 383.221 38.1523 383.078 38.0792 383.123C38.0244 383.15 36.0782 383.15 33.7391 383.114L29.4904 383.061L29.4355 382.429C29.399 382.082 29.3533 381.583 29.3259 381.325L29.2711 380.862H40.7289L40.6832 381.236Z" fill="#54BD64"/>
<path d="M67.858 394.15C66.538 394.15 65.41 393.85 64.474 393.25C63.55 392.65 62.854 391.846 62.386 390.838C61.918 389.818 61.684 388.69 61.684 387.454C61.684 386.218 61.918 385.096 62.386 384.088C62.854 383.068 63.55 382.258 64.474 381.658C65.41 381.058 66.538 380.758 67.858 380.758C68.818 380.758 69.67 380.95 70.414 381.334C71.17 381.718 71.782 382.252 72.25 382.936C72.718 383.62 73.03 384.394 73.186 385.258H71.566C71.458 384.658 71.236 384.13 70.9 383.674C70.564 383.218 70.132 382.864 69.604 382.612C69.088 382.36 68.506 382.234 67.858 382.234C66.862 382.234 66.022 382.468 65.338 382.936C64.666 383.392 64.162 384.016 63.826 384.808C63.502 385.588 63.34 386.47 63.34 387.454C63.34 388.438 63.502 389.326 63.826 390.118C64.162 390.898 64.666 391.522 65.338 391.99C66.022 392.446 66.862 392.674 67.858 392.674C68.554 392.674 69.172 392.53 69.712 392.242C70.264 391.942 70.708 391.534 71.044 391.018C71.38 390.49 71.59 389.89 71.674 389.218H73.276C73.156 390.154 72.862 391 72.394 391.756C71.938 392.5 71.32 393.088 70.54 393.52C69.76 393.94 68.866 394.15 67.858 394.15ZM79.8951 394.15C78.8871 394.15 77.9871 393.988 77.1951 393.664C76.4031 393.34 75.7671 392.842 75.2871 392.17C74.8191 391.486 74.5671 390.622 74.5311 389.578H76.1691C76.2051 390.682 76.5651 391.48 77.2491 391.972C77.9451 392.464 78.8271 392.71 79.8951 392.71C80.8551 392.71 81.6231 392.512 82.1991 392.116C82.7871 391.708 83.0811 391.126 83.0811 390.37C83.0811 389.95 82.9791 389.608 82.7751 389.344C82.5831 389.068 82.2231 388.822 81.6951 388.606C81.1791 388.39 80.4231 388.174 79.4271 387.958C78.3951 387.742 77.5611 387.49 76.9251 387.202C76.2891 386.902 75.8031 386.506 75.4671 386.014C75.1431 385.522 74.9811 384.892 74.9811 384.124C74.9811 383.452 75.1731 382.864 75.5571 382.36C75.9411 381.844 76.4631 381.448 77.1231 381.172C77.7951 380.896 78.5451 380.758 79.3731 380.758C81.0771 380.758 82.3431 381.154 83.1711 381.946C84.0111 382.738 84.4431 383.758 84.4671 385.006H82.8471C82.7871 384.07 82.4811 383.368 81.9291 382.9C81.3771 382.432 80.5251 382.198 79.3731 382.198C78.5451 382.198 77.8791 382.372 77.3751 382.72C76.8711 383.068 76.6191 383.536 76.6191 384.124C76.6191 384.568 76.6971 384.928 76.8531 385.204C77.0211 385.468 77.3451 385.708 77.8251 385.924C78.3171 386.14 79.0611 386.35 80.0571 386.554C81.2931 386.806 82.2471 387.112 82.9191 387.472C83.5911 387.82 84.0591 388.228 84.3231 388.696C84.5871 389.152 84.7191 389.71 84.7191 390.37C84.7191 391.126 84.5151 391.792 84.1071 392.368C83.7111 392.932 83.1471 393.37 82.4151 393.682C81.6951 393.994 80.8551 394.15 79.8951 394.15ZM91.1627 394.15C90.1547 394.15 89.2547 393.988 88.4627 393.664C87.6707 393.34 87.0347 392.842 86.5547 392.17C86.0867 391.486 85.8347 390.622 85.7987 389.578H87.4367C87.4727 390.682 87.8327 391.48 88.5167 391.972C89.2127 392.464 90.0947 392.71 91.1627 392.71C92.1227 392.71 92.8907 392.512 93.4667 392.116C94.0547 391.708 94.3487 391.126 94.3487 390.37C94.3487 389.95 94.2467 389.608 94.0427 389.344C93.8507 389.068 93.4907 388.822 92.9627 388.606C92.4467 388.39 91.6907 388.174 90.6947 387.958C89.6627 387.742 88.8287 387.49 88.1927 387.202C87.5567 386.902 87.0707 386.506 86.7347 386.014C86.4107 385.522 86.2487 384.892 86.2487 384.124C86.2487 383.452 86.4407 382.864 86.8247 382.36C87.2087 381.844 87.7307 381.448 88.3907 381.172C89.0627 380.896 89.8127 380.758 90.6407 380.758C92.3447 380.758 93.6107 381.154 94.4387 381.946C95.2787 382.738 95.7107 383.758 95.7347 385.006H94.1147C94.0547 384.07 93.7487 383.368 93.1967 382.9C92.6447 382.432 91.7927 382.198 90.6407 382.198C89.8127 382.198 89.1467 382.372 88.6427 382.72C88.1387 383.068 87.8867 383.536 87.8867 384.124C87.8867 384.568 87.9647 384.928 88.1207 385.204C88.2887 385.468 88.6127 385.708 89.0927 385.924C89.5847 386.14 90.3287 386.35 91.3247 386.554C92.5607 386.806 93.5147 387.112 94.1867 387.472C94.8587 387.82 95.3267 388.228 95.5907 388.696C95.8547 389.152 95.9867 389.71 95.9867 390.37C95.9867 391.126 95.7827 391.792 95.3747 392.368C94.9787 392.932 94.4147 393.37 93.6827 393.682C92.9627 393.994 92.1227 394.15 91.1627 394.15Z" fill="#54BD64"/>
<rect x="202" y="368.213" width="38" height="38" rx="15" stroke="#54BD64"/>
<path d="M210.02 374.613C209.124 374.613 208.4 375.337 208.4 376.233V398.194C208.4 398.855 208.853 399.313 209.42 399.565V399.873H231.981C232.876 399.873 233.6 399.149 233.6 398.254V376.233C233.6 375.337 232.921 374.613 232.041 374.613H210.02ZM210.02 375.813H232.041C232.121 375.813 232.4 376.048 232.4 376.233V398.254C232.4 398.438 232.165 398.673 231.981 398.673H210.62V398.613H210.02C209.835 398.613 209.6 398.378 209.6 398.194V376.233C209.6 376.048 209.835 375.813 210.02 375.813ZM219.8 386.013V393.573C219.8 394.713 219.38 395.013 218.6 395.013C217.76 395.013 217.22 394.533 216.86 393.873L215 395.013C215.54 396.153 216.86 397.413 218.72 397.413C220.82 397.413 222.2 396.333 222.2 393.933V386.013H219.8ZM227.241 386.073C225.201 386.073 223.881 387.333 223.881 389.073C223.881 390.933 224.961 391.774 226.641 392.494C227.601 392.854 228.92 393.273 228.8 394.233C228.8 394.893 228.32 395.373 227.36 395.373C226.22 395.373 225.68 394.593 225.2 393.813L223.341 395.073C224.001 396.393 225.26 397.473 227.36 397.473C229.52 397.473 231.141 396.334 231.141 394.294C231.201 392.194 229.461 391.234 227.481 390.454C226.521 390.034 226.1 389.733 226.1 389.073C226.1 388.533 226.521 388.113 227.181 388.113C227.841 388.113 228.261 388.353 228.681 389.073L230.481 387.933C229.761 386.553 228.681 386.073 227.241 386.073Z" fill="#54BD64"/>
<path d="M251.572 393.929C250.264 393.929 249.268 393.545 248.584 392.777C247.912 392.009 247.576 390.971 247.576 389.663V388.943H249.16V389.663C249.16 390.587 249.352 391.289 249.736 391.769C250.132 392.249 250.744 392.489 251.572 392.489C252.4 392.489 253.006 392.249 253.39 391.769C253.786 391.289 253.984 390.587 253.984 389.663V380.753H255.568V389.663C255.568 390.971 255.226 392.009 254.542 392.777C253.87 393.545 252.88 393.929 251.572 393.929ZM260.575 393.929C259.519 393.929 258.691 393.689 258.091 393.209C257.491 392.729 257.191 392.051 257.191 391.175C257.191 390.635 257.323 390.173 257.587 389.789C257.851 389.405 258.229 389.087 258.721 388.835C259.225 388.583 259.837 388.391 260.557 388.259L263.491 387.701V386.981C263.491 386.441 263.317 386.057 262.969 385.829C262.621 385.589 262.111 385.469 261.439 385.469C260.779 385.469 260.221 385.601 259.765 385.865C259.309 386.129 259.063 386.585 259.027 387.233H257.515C257.551 386.177 257.935 385.397 258.667 384.893C259.411 384.389 260.335 384.137 261.439 384.137C262.615 384.137 263.497 384.377 264.085 384.857C264.673 385.325 264.967 385.985 264.967 386.837V393.713H263.563V392.543C263.179 393.035 262.735 393.389 262.231 393.605C261.727 393.821 261.175 393.929 260.575 393.929ZM260.647 392.597C261.127 392.597 261.583 392.507 262.015 392.327C262.447 392.135 262.801 391.847 263.077 391.463C263.353 391.067 263.491 390.581 263.491 390.005V388.979L260.773 389.537C260.077 389.681 259.567 389.861 259.243 390.077C258.919 390.293 258.757 390.647 258.757 391.139C258.757 391.595 258.913 391.955 259.225 392.219C259.537 392.471 260.011 392.597 260.647 392.597ZM265.97 384.353H267.608L270.488 391.967L273.368 384.353H275.006L271.262 393.713H269.714L265.97 384.353ZM279.103 393.929C278.047 393.929 277.219 393.689 276.619 393.209C276.019 392.729 275.719 392.051 275.719 391.175C275.719 390.635 275.851 390.173 276.115 389.789C276.379 389.405 276.757 389.087 277.249 388.835C277.753 388.583 278.365 388.391 279.085 388.259L282.019 387.701V386.981C282.019 386.441 281.845 386.057 281.497 385.829C281.149 385.589 280.639 385.469 279.967 385.469C279.307 385.469 278.749 385.601 278.293 385.865C277.837 386.129 277.591 386.585 277.555 387.233H276.043C276.079 386.177 276.463 385.397 277.195 384.893C277.939 384.389 278.863 384.137 279.967 384.137C281.143 384.137 282.025 384.377 282.613 384.857C283.201 385.325 283.495 385.985 283.495 386.837V393.713H282.091V392.543C281.707 393.035 281.263 393.389 280.759 393.605C280.255 393.821 279.703 393.929 279.103 393.929ZM279.175 392.597C279.655 392.597 280.111 392.507 280.543 392.327C280.975 392.135 281.329 391.847 281.605 391.463C281.881 391.067 282.019 390.581 282.019 390.005V388.979L279.301 389.537C278.605 389.681 278.095 389.861 277.771 390.077C277.447 390.293 277.285 390.647 277.285 391.139C277.285 391.595 277.441 391.955 277.753 392.219C278.065 392.471 278.539 392.597 279.175 392.597ZM288.782 393.929C287.606 393.929 286.658 393.659 285.938 393.119C285.23 392.567 284.846 391.745 284.786 390.653H286.316C286.388 391.349 286.622 391.853 287.018 392.165C287.426 392.465 288.014 392.615 288.782 392.615C289.478 392.615 290.018 392.495 290.402 392.255C290.798 392.003 290.996 391.655 290.996 391.211C290.996 390.911 290.942 390.677 290.834 390.509C290.726 390.329 290.504 390.173 290.168 390.041C289.832 389.909 289.322 389.789 288.638 389.681C287.714 389.525 286.988 389.321 286.46 389.069C285.944 388.805 285.584 388.493 285.38 388.133C285.176 387.773 285.074 387.329 285.074 386.801C285.074 385.997 285.392 385.355 286.028 384.875C286.676 384.383 287.504 384.137 288.512 384.137C289.7 384.137 290.63 384.407 291.302 384.947C291.986 385.487 292.334 386.249 292.346 387.233H290.834C290.81 386.573 290.594 386.111 290.186 385.847C289.778 385.583 289.22 385.451 288.512 385.451C287.96 385.451 287.498 385.571 287.126 385.811C286.766 386.039 286.586 386.363 286.586 386.783C286.586 387.083 286.652 387.323 286.784 387.503C286.916 387.671 287.15 387.815 287.486 387.935C287.834 388.055 288.344 388.175 289.016 388.295C289.928 388.451 290.636 388.649 291.14 388.889C291.644 389.129 291.998 389.429 292.202 389.789C292.418 390.137 292.526 390.581 292.526 391.121C292.526 391.997 292.178 392.687 291.482 393.191C290.786 393.683 289.886 393.929 288.782 393.929ZM298.061 393.929C297.197 393.929 296.435 393.719 295.775 393.299C295.115 392.879 294.605 392.297 294.245 391.553C293.885 390.809 293.705 389.969 293.705 389.033C293.705 388.097 293.885 387.257 294.245 386.513C294.605 385.769 295.115 385.187 295.775 384.767C296.435 384.347 297.197 384.137 298.061 384.137C299.189 384.137 300.101 384.443 300.797 385.055C301.505 385.667 301.931 386.489 302.075 387.521H300.509C300.377 386.897 300.095 386.405 299.663 386.045C299.243 385.685 298.709 385.505 298.061 385.505C297.473 385.505 296.969 385.655 296.549 385.955C296.141 386.255 295.829 386.669 295.613 387.197C295.397 387.725 295.289 388.337 295.289 389.033C295.289 389.729 295.397 390.341 295.613 390.869C295.829 391.397 296.141 391.811 296.549 392.111C296.969 392.411 297.473 392.561 298.061 392.561C298.709 392.561 299.249 392.381 299.681 392.021C300.113 391.649 300.389 391.145 300.509 390.509H302.075C301.943 391.529 301.505 392.357 300.761 392.993C300.029 393.617 299.129 393.929 298.061 393.929ZM303.768 384.353H305.208V385.919C305.556 385.295 305.982 384.863 306.486 384.623C306.99 384.371 307.56 384.245 308.196 384.245H308.898V385.703H308.16C307.596 385.703 307.098 385.799 306.666 385.991C306.246 386.171 305.91 386.483 305.658 386.927C305.406 387.371 305.28 387.965 305.28 388.709V393.713H303.768V384.353ZM310.482 384.353H311.994V393.713H310.482V384.353ZM310.482 380.753H311.994V382.589H310.482V380.753ZM316.946 384.569C317.474 384.281 318.092 384.137 318.8 384.137C319.712 384.137 320.492 384.347 321.14 384.767C321.8 385.187 322.298 385.769 322.634 386.513C322.982 387.245 323.156 388.085 323.156 389.033C323.156 389.981 322.982 390.827 322.634 391.571C322.298 392.303 321.8 392.879 321.14 393.299C320.492 393.719 319.712 393.929 318.8 393.929C318.116 393.929 317.51 393.797 316.982 393.533C316.466 393.257 316.04 392.873 315.704 392.381V397.313H314.192V384.353H315.632V385.793C315.98 385.265 316.418 384.857 316.946 384.569ZM320.24 385.955C319.808 385.655 319.268 385.505 318.62 385.505C317.972 385.505 317.426 385.655 316.982 385.955C316.55 386.255 316.22 386.669 315.992 387.197C315.776 387.725 315.668 388.337 315.668 389.033C315.668 389.729 315.776 390.341 315.992 390.869C316.22 391.397 316.55 391.811 316.982 392.111C317.426 392.411 317.972 392.561 318.62 392.561C319.268 392.561 319.808 392.411 320.24 392.111C320.684 391.811 321.014 391.397 321.23 390.869C321.458 390.341 321.572 389.729 321.572 389.033C321.572 388.337 321.458 387.725 321.23 387.197C321.014 386.669 320.684 386.255 320.24 385.955ZM328.082 393.713C327.542 393.713 327.11 393.641 326.786 393.497C326.474 393.341 326.246 393.107 326.102 392.795C325.958 392.483 325.886 392.081 325.886 391.589V385.685H324.158V384.353H325.886V381.473H327.398V384.353H329.918V385.685H327.398V391.409C327.398 391.745 327.476 391.991 327.632 392.147C327.788 392.303 328.034 392.381 328.37 392.381H329.918V393.713H328.082Z" fill="#54BD64"/>
<rect x="16" y="430.07" width="38" height="38" rx="15" stroke="#54BD64"/>
<path d="M36.3597 442.804C36.4168 442.674 36.6011 442.674 36.6583 442.804L39.1739 448.524C39.1904 448.561 39.2202 448.591 39.2576 448.608L44.9773 451.123C45.1072 451.18 45.1072 451.365 44.9773 451.422L39.2576 453.938C39.2202 453.954 39.1904 453.984 39.1739 454.021L36.6583 459.741C36.6011 459.871 36.4168 459.871 36.3597 459.741L33.844 454.021C33.8276 453.984 33.7977 453.954 33.7604 453.938L28.0406 451.422C27.9107 451.365 27.9107 451.18 28.0406 451.123L33.7604 448.608C33.7977 448.591 33.8276 448.561 33.844 448.524L36.3597 442.804Z" fill="#54BD64"/>
<path d="M28.5304 441.091C28.5876 440.961 28.7719 440.961 28.829 441.091L29.8749 443.469C29.8913 443.507 29.9212 443.537 29.9585 443.553L32.3364 444.599C32.4663 444.656 32.4663 444.84 32.3364 444.897L29.9585 445.943C29.9212 445.96 29.8913 445.99 29.8749 446.027L28.829 448.405C28.7719 448.535 28.5876 448.535 28.5304 448.405L27.4846 446.027C27.4681 445.99 27.4383 445.96 27.4009 445.943L25.0231 444.897C24.8931 444.84 24.8931 444.656 25.0231 444.599L27.4009 443.553C27.4383 443.537 27.4681 443.507 27.4846 443.469L28.5304 441.091Z" fill="#54BD64"/>
<path d="M34.3207 438.4C34.3778 438.27 34.5622 438.27 34.6193 438.4L35.0922 439.475C35.1086 439.512 35.1385 439.542 35.1758 439.559L36.2509 440.032C36.3809 440.089 36.3809 440.273 36.2509 440.33L35.1758 440.803C35.1385 440.82 35.1086 440.849 35.0922 440.887L34.6193 441.962C34.5622 442.092 34.3778 442.092 34.3207 441.962L33.8478 440.887C33.8314 440.849 33.8016 440.82 33.7642 440.803L32.6891 440.33C32.5592 440.273 32.5592 440.089 32.6891 440.032L33.7642 439.559C33.8016 439.542 33.8314 439.512 33.8478 439.475L34.3207 438.4Z" fill="#54BD64"/>
<path d="M66.616 442.61H68.344L73.636 455.57H71.944L70.486 451.862H64.474L63.016 455.57H61.324L66.616 442.61ZM69.91 450.422L67.48 444.248L65.05 450.422H69.91ZM82.8471 455.57H81.4071V454.22C81.0711 454.7 80.6511 455.084 80.1471 455.372C79.6431 455.648 79.0611 455.786 78.4011 455.786C77.6451 455.786 77.0151 455.624 76.5111 455.3C76.0191 454.976 75.6531 454.556 75.4131 454.04C75.1851 453.512 75.0711 452.954 75.0711 452.366V446.21H76.5651V452.222C76.5651 452.894 76.7451 453.428 77.1051 453.824C77.4651 454.22 77.9931 454.418 78.6891 454.418C79.0131 454.418 79.3731 454.346 79.7691 454.202C80.1771 454.058 80.5371 453.764 80.8491 453.32C81.1731 452.876 81.3351 452.252 81.3351 451.448V446.21H82.8471V455.57ZM88.205 455.57C87.665 455.57 87.233 455.498 86.909 455.354C86.597 455.198 86.369 454.964 86.225 454.652C86.081 454.34 86.009 453.938 86.009 453.446V447.542H84.281V446.21H86.009V443.33H87.521V446.21H90.041V447.542H87.521V453.266C87.521 453.602 87.599 453.848 87.755 454.004C87.911 454.16 88.157 454.238 88.493 454.238H90.041V455.57H88.205ZM95.7688 455.786C94.8568 455.786 94.0528 455.576 93.3568 455.156C92.6728 454.736 92.1448 454.154 91.7728 453.41C91.4128 452.666 91.2328 451.826 91.2328 450.89C91.2328 449.954 91.4128 449.114 91.7728 448.37C92.1448 447.626 92.6728 447.044 93.3568 446.624C94.0528 446.204 94.8568 445.994 95.7688 445.994C96.6808 445.994 97.4788 446.204 98.1628 446.624C98.8588 447.044 99.3868 447.626 99.7468 448.37C100.119 449.114 100.305 449.954 100.305 450.89C100.305 451.826 100.119 452.666 99.7468 453.41C99.3868 454.154 98.8588 454.736 98.1628 455.156C97.4788 455.576 96.6808 455.786 95.7688 455.786ZM95.7688 454.418C96.4168 454.418 96.9568 454.268 97.3888 453.968C97.8328 453.668 98.1628 453.254 98.3788 452.726C98.6068 452.198 98.7208 451.586 98.7208 450.89C98.7208 450.194 98.6068 449.582 98.3788 449.054C98.1628 448.526 97.8328 448.112 97.3888 447.812C96.9568 447.512 96.4168 447.362 95.7688 447.362C95.1208 447.362 94.5748 447.512 94.1308 447.812C93.6988 448.112 93.3688 448.526 93.1408 449.054C92.9248 449.582 92.8168 450.194 92.8168 450.89C92.8168 451.586 92.9248 452.198 93.1408 452.726C93.3688 453.254 93.6988 453.668 94.1308 453.968C94.5748 454.268 95.1208 454.418 95.7688 454.418ZM102.106 446.21H103.546V447.542C103.822 447.062 104.188 446.684 104.644 446.408C105.112 446.132 105.676 445.994 106.336 445.994C107.032 445.994 107.614 446.162 108.082 446.498C108.55 446.822 108.904 447.26 109.144 447.812C109.444 447.26 109.846 446.822 110.35 446.498C110.866 446.162 111.478 445.994 112.186 445.994C112.87 445.994 113.446 446.162 113.914 446.498C114.394 446.822 114.748 447.248 114.976 447.776C115.204 448.292 115.318 448.838 115.318 449.414V455.57H113.806V449.558C113.806 448.898 113.638 448.37 113.302 447.974C112.966 447.566 112.498 447.362 111.898 447.362C111.346 447.362 110.8 447.572 110.26 447.992C109.732 448.4 109.468 449.18 109.468 450.332V455.57H107.956V449.558C107.956 448.898 107.788 448.37 107.452 447.974C107.116 447.566 106.648 447.362 106.048 447.362C105.496 447.362 104.95 447.572 104.41 447.992C103.882 448.4 103.618 449.18 103.618 450.332V455.57H102.106V446.21ZM120.401 455.786C119.345 455.786 118.517 455.546 117.917 455.066C117.317 454.586 117.017 453.908 117.017 453.032C117.017 452.492 117.149 452.03 117.413 451.646C117.677 451.262 118.055 450.944 118.547 450.692C119.051 450.44 119.663 450.248 120.383 450.116L123.317 449.558V448.838C123.317 448.298 123.143 447.914 122.795 447.686C122.447 447.446 121.937 447.326 121.265 447.326C120.605 447.326 120.047 447.458 119.591 447.722C119.135 447.986 118.889 448.442 118.853 449.09H117.341C117.377 448.034 117.761 447.254 118.493 446.75C119.237 446.246 120.161 445.994 121.265 445.994C122.441 445.994 123.323 446.234 123.911 446.714C124.499 447.182 124.793 447.842 124.793 448.694V455.57H123.389V454.4C123.005 454.892 122.561 455.246 122.057 455.462C121.553 455.678 121.001 455.786 120.401 455.786ZM120.473 454.454C120.953 454.454 121.409 454.364 121.841 454.184C122.273 453.992 122.627 453.704 122.903 453.32C123.179 452.924 123.317 452.438 123.317 451.862V450.836L120.599 451.394C119.903 451.538 119.393 451.718 119.069 451.934C118.745 452.15 118.583 452.504 118.583 452.996C118.583 453.452 118.739 453.812 119.051 454.076C119.363 454.328 119.837 454.454 120.473 454.454ZM129.9 455.57C129.36 455.57 128.928 455.498 128.604 455.354C128.292 455.198 128.064 454.964 127.92 454.652C127.776 454.34 127.704 453.938 127.704 453.446V447.542H125.976V446.21H127.704V443.33H129.216V446.21H131.736V447.542H129.216V453.266C129.216 453.602 129.294 453.848 129.45 454.004C129.606 454.16 129.852 454.238 130.188 454.238H131.736V455.57H129.9ZM133.324 446.21H134.836V455.57H133.324V446.21ZM133.324 442.61H134.836V444.446H133.324V442.61ZM141.03 455.786C140.166 455.786 139.404 455.576 138.744 455.156C138.084 454.736 137.574 454.154 137.214 453.41C136.854 452.666 136.674 451.826 136.674 450.89C136.674 449.954 136.854 449.114 137.214 448.37C137.574 447.626 138.084 447.044 138.744 446.624C139.404 446.204 140.166 445.994 141.03 445.994C142.158 445.994 143.07 446.3 143.766 446.912C144.474 447.524 144.9 448.346 145.044 449.378H143.478C143.346 448.754 143.064 448.262 142.632 447.902C142.212 447.542 141.678 447.362 141.03 447.362C140.442 447.362 139.938 447.512 139.518 447.812C139.11 448.112 138.798 448.526 138.582 449.054C138.366 449.582 138.258 450.194 138.258 450.89C138.258 451.586 138.366 452.198 138.582 452.726C138.798 453.254 139.11 453.668 139.518 453.968C139.938 454.268 140.442 454.418 141.03 454.418C141.678 454.418 142.218 454.238 142.65 453.878C143.082 453.506 143.358 453.002 143.478 452.366H145.044C144.912 453.386 144.474 454.214 143.73 454.85C142.998 455.474 142.098 455.786 141.03 455.786ZM152.917 444.5L149.983 446.66V444.842L153.025 442.61H154.501V455.57H152.917V444.5ZM159.527 444.5L156.593 446.66V444.842L159.635 442.61H161.111V455.57H159.527V444.5ZM166.136 444.5L163.202 446.66V444.842L166.244 442.61H167.72V455.57H166.136V444.5ZM172.745 444.5L169.811 446.66V444.842L172.853 442.61H174.329V455.57H172.745V444.5Z" fill="#54BD64"/>
<rect x="202" y="58.9277" width="38" height="38" rx="15" stroke="#54BD64"/>
<g clip-path="url(#clip0_748_461)">
<path fill-rule="evenodd" clip-rule="evenodd" d="M210.953 68.5903C210.954 68.7667 210.99 68.9411 211.058 69.1036C211.126 69.2662 211.226 69.4137 211.352 69.5377C211.477 69.6617 211.625 69.7599 211.789 69.8265C211.952 69.8931 212.127 69.9269 212.303 69.9259H223.492C227.186 69.6757 229.45 74.3863 226.642 76.8829C225.818 77.5885 224.768 77.9407 223.492 77.9395H218.632C218.452 77.9329 218.273 77.9626 218.105 78.0268C217.937 78.091 217.784 78.1884 217.655 78.3132C217.525 78.4379 217.422 78.5875 217.352 78.7529C217.282 78.9184 217.245 79.0963 217.245 79.276C217.245 79.4558 217.282 79.6337 217.352 79.7991C217.422 79.9646 217.525 80.1141 217.655 80.2389C217.784 80.3637 217.937 80.461 218.105 80.5252C218.273 80.5894 218.452 80.6191 218.632 80.6125C218.801 80.6125 224.045 80.6125 224.001 80.6125L228.838 88.2913C228.967 88.5088 229.152 88.688 229.374 88.8104C229.595 88.9328 229.845 88.9941 230.098 88.9879C231.331 89.0293 231.898 87.7495 231.223 86.7613L226.921 79.9213C233.635 76.7695 230.798 66.9721 223.488 67.2601H212.303C211.948 67.2587 211.607 67.3977 211.354 67.6469C211.101 67.8961 210.957 68.2353 210.953 68.5903Z" fill="#54BD64"/>
</g>
<path d="M249.224 71.9677H254.588C256.076 71.9677 257.192 72.2977 257.936 72.9577C258.68 73.6057 259.052 74.5117 259.052 75.6757C259.052 76.2997 258.878 76.8817 258.53 77.4217C258.194 77.9617 257.69 78.3997 257.018 78.7357C257.474 78.8917 257.834 79.1497 258.098 79.5097C258.362 79.8697 258.536 80.3197 258.62 80.8597L259.232 84.9277H257.594L257.126 81.5257C257.054 81.0097 256.916 80.5957 256.712 80.2837C256.52 79.9717 256.256 79.7437 255.92 79.5997C255.584 79.4557 255.164 79.3837 254.66 79.3837H250.808V84.9277H249.224V71.9677ZM254.588 77.9437C255.548 77.9437 256.256 77.7457 256.712 77.3497C257.18 76.9417 257.414 76.3837 257.414 75.6757C257.414 74.9677 257.18 74.4157 256.712 74.0197C256.256 73.6117 255.548 73.4077 254.588 73.4077H250.808V77.9437H254.588ZM260.822 75.5677H262.334V84.9277H260.822V75.5677ZM260.822 71.9677H262.334V73.8037H260.822V71.9677ZM263.56 75.5677H265.198L268.078 83.1817L270.958 75.5677H272.596L268.852 84.9277H267.304L263.56 75.5677ZM277.79 85.1437C276.926 85.1437 276.158 84.9337 275.486 84.5137C274.826 84.0937 274.316 83.5117 273.956 82.7677C273.596 82.0237 273.416 81.1837 273.416 80.2477C273.416 79.3117 273.596 78.4717 273.956 77.7277C274.316 76.9837 274.826 76.4017 275.486 75.9817C276.158 75.5617 276.926 75.3517 277.79 75.3517C278.654 75.3517 279.416 75.5617 280.076 75.9817C280.748 76.4017 281.264 76.9837 281.624 77.7277C281.984 78.4717 282.164 79.3117 282.164 80.2477V80.7877H275.018C275.078 81.3877 275.222 81.9097 275.45 82.3537C275.678 82.7977 275.99 83.1457 276.386 83.3977C276.782 83.6497 277.25 83.7757 277.79 83.7757C278.402 83.7757 278.936 83.6257 279.392 83.3257C279.848 83.0257 280.184 82.6117 280.4 82.0837H281.966C281.666 83.0197 281.144 83.7637 280.4 84.3157C279.668 84.8677 278.798 85.1437 277.79 85.1437ZM280.526 79.4197C280.406 78.5917 280.112 77.9377 279.644 77.4577C279.176 76.9657 278.558 76.7197 277.79 76.7197C277.022 76.7197 276.404 76.9657 275.936 77.4577C275.468 77.9377 275.174 78.5917 275.054 79.4197H280.526Z" fill="#54BD64"/>
<rect x="16" y="120.785" width="38" height="38" rx="15" stroke="#54BD64"/>
<path d="M36.3597 133.519C36.4168 133.389 36.6011 133.389 36.6583 133.519L39.1739 139.239C39.1904 139.276 39.2202 139.306 39.2576 139.323L44.9773 141.838C45.1072 141.895 45.1072 142.08 44.9773 142.137L39.2576 144.652C39.2202 144.669 39.1904 144.699 39.1739 144.736L36.6583 150.456C36.6011 150.586 36.4168 150.586 36.3597 150.456L33.844 144.736C33.8276 144.699 33.7977 144.669 33.7604 144.652L28.0406 142.137C27.9107 142.08 27.9107 141.895 28.0406 141.838L33.7604 139.323C33.7977 139.306 33.8276 139.276 33.844 139.239L36.3597 133.519Z" fill="#54BD64"/>
<path d="M28.5304 131.806C28.5876 131.676 28.7719 131.676 28.829 131.806L29.8749 134.184C29.8913 134.222 29.9212 134.251 29.9585 134.268L32.3364 135.314C32.4663 135.371 32.4663 135.555 32.3364 135.612L29.9585 136.658C29.9212 136.675 29.8913 136.704 29.8749 136.742L28.829 139.12C28.7719 139.25 28.5876 139.25 28.5304 139.12L27.4846 136.742C27.4681 136.704 27.4383 136.675 27.4009 136.658L25.0231 135.612C24.8931 135.555 24.8931 135.371 25.0231 135.314L27.4009 134.268C27.4383 134.251 27.4681 134.222 27.4846 134.184L28.5304 131.806Z" fill="#54BD64"/>
<path d="M34.3207 129.115C34.3778 128.985 34.5622 128.985 34.6193 129.115L35.0922 130.19C35.1086 130.227 35.1385 130.257 35.1758 130.274L36.2509 130.746C36.3809 130.804 36.3809 130.988 36.2509 131.045L35.1758 131.518C35.1385 131.534 35.1086 131.564 35.0922 131.602L34.6193 132.677C34.5622 132.807 34.3778 132.807 34.3207 132.677L33.8478 131.602C33.8314 131.564 33.8016 131.534 33.7642 131.518L32.6891 131.045C32.5592 130.988 32.5592 130.804 32.6891 130.746L33.7642 130.274C33.8016 130.257 33.8314 130.227 33.8478 130.19L34.3207 129.115Z" fill="#54BD64"/>
<path d="M67.858 146.722C66.538 146.722 65.41 146.422 64.474 145.822C63.55 145.222 62.854 144.418 62.386 143.41C61.918 142.39 61.684 141.262 61.684 140.026C61.684 138.79 61.918 137.668 62.386 136.66C62.854 135.64 63.55 134.83 64.474 134.23C65.41 133.63 66.538 133.33 67.858 133.33C68.926 133.33 69.862 133.528 70.666 133.924C71.482 134.32 72.136 134.866 72.628 135.562C73.132 136.246 73.462 137.032 73.618 137.92H71.998C71.83 136.996 71.374 136.246 70.63 135.67C69.898 135.094 68.974 134.806 67.858 134.806C66.862 134.806 66.022 135.04 65.338 135.508C64.666 135.964 64.162 136.588 63.826 137.38C63.502 138.16 63.34 139.042 63.34 140.026C63.34 141.01 63.502 141.898 63.826 142.69C64.162 143.47 64.666 144.094 65.338 144.562C66.022 145.018 66.862 145.246 67.858 145.246C69.106 145.246 70.084 144.892 70.792 144.184C71.512 143.464 71.974 142.492 72.178 141.268H67.318V139.828H73.762V146.506H72.394V144.202C71.974 145.006 71.392 145.63 70.648 146.074C69.904 146.506 68.974 146.722 67.858 146.722ZM76.0228 133.546H85.0588V134.986H77.6068V139.018H84.5188V140.458H77.6068V145.066H84.9868V146.506H76.0228V133.546ZM86.7806 133.546H88.6886L95.6726 144.328V133.546H97.2566V146.506H95.3486L88.3646 135.724V146.506H86.7806V133.546ZM107.591 133.546H109.319L114.611 146.506H112.919L111.461 142.798H105.449L103.991 146.506H102.299L107.591 133.546ZM110.885 141.358L108.455 135.184L106.025 141.358H110.885ZM116.154 133.546H117.738V146.506H116.154V133.546Z" fill="#54BD64"/>
<rect x="202" y="120.785" width="38" height="38" rx="15" stroke="#54BD64"/>
<mask id="mask0_748_461" style="mask-type:luminance" maskUnits="userSpaceOnUse" x="207" y="125" width="28" height="29">
<path d="M207 125.785H235V153.785H207V125.785Z" fill="white"/>
</mask>
<g mask="url(#mask0_748_461)">
<path d="M214.085 126.785H227.915C231.276 126.785 234 129.51 234 132.87V146.7C234 150.061 231.276 152.785 227.915 152.785H214.085C210.724 152.785 208 150.061 208 146.7V132.87C208 129.51 210.724 126.785 214.085 126.785Z" stroke="#54BD64" stroke-width="2"/>
<path d="M228.282 132.057C223.456 132.057 221.676 135.498 220.24 138.263L219.296 140.03C217.775 142.963 216.639 144.745 213.712 144.745C213.53 144.745 213.35 144.78 213.182 144.85C213.013 144.919 212.861 145.021 212.732 145.15C212.538 145.343 212.406 145.59 212.353 145.859C212.299 146.127 212.327 146.406 212.432 146.659C212.501 146.827 212.603 146.98 212.732 147.108C212.861 147.237 213.014 147.339 213.182 147.408C213.35 147.478 213.53 147.513 213.712 147.513C218.538 147.513 220.318 144.072 221.754 141.307L222.692 139.539C224.214 136.606 225.35 134.825 228.277 134.825C228.551 134.825 228.819 134.744 229.046 134.592C229.274 134.44 229.452 134.224 229.557 133.971C229.662 133.718 229.689 133.439 229.636 133.171C229.582 132.902 229.45 132.655 229.256 132.462C229.128 132.333 228.975 132.231 228.807 132.162C228.639 132.092 228.459 132.056 228.277 132.057H228.282Z" fill="#54BD64"/>
</g>
<path d="M249.224 133.825H250.808V145.345H257.324V146.785H249.224V133.825ZM262.941 147.001C262.029 147.001 261.225 146.791 260.529 146.371C259.845 145.951 259.317 145.369 258.945 144.625C258.585 143.881 258.405 143.041 258.405 142.105C258.405 141.169 258.585 140.329 258.945 139.585C259.317 138.841 259.845 138.259 260.529 137.839C261.225 137.419 262.029 137.209 262.941 137.209C263.853 137.209 264.651 137.419 265.335 137.839C266.031 138.259 266.559 138.841 266.919 139.585C267.291 140.329 267.477 141.169 267.477 142.105C267.477 143.041 267.291 143.881 266.919 144.625C266.559 145.369 266.031 145.951 265.335 146.371C264.651 146.791 263.853 147.001 262.941 147.001ZM262.941 145.633C263.589 145.633 264.129 145.483 264.561 145.183C265.005 144.883 265.335 144.469 265.551 143.941C265.779 143.413 265.893 142.801 265.893 142.105C265.893 141.409 265.779 140.797 265.551 140.269C265.335 139.741 265.005 139.327 264.561 139.027C264.129 138.727 263.589 138.577 262.941 138.577C262.293 138.577 261.747 138.727 261.303 139.027C260.871 139.327 260.541 139.741 260.313 140.269C260.097 140.797 259.989 141.409 259.989 142.105C259.989 142.801 260.097 143.413 260.313 143.941C260.541 144.469 260.871 144.883 261.303 145.183C261.747 145.483 262.293 145.633 262.941 145.633ZM272.41 146.785C271.87 146.785 271.438 146.713 271.114 146.569C270.802 146.413 270.574 146.179 270.43 145.867C270.286 145.555 270.214 145.153 270.214 144.661V138.757H268.486V137.425H270.214V134.545H271.726V137.425H274.246V138.757H271.726V144.481C271.726 144.817 271.804 145.063 271.96 145.219C272.116 145.375 272.362 145.453 272.698 145.453H274.246V146.785H272.41ZM279.002 146.785C278.462 146.785 278.03 146.713 277.706 146.569C277.394 146.413 277.166 146.179 277.022 145.867C276.878 145.555 276.806 145.153 276.806 144.661V138.757H275.078V137.425H276.806V134.545H278.318V137.425H280.838V138.757H278.318V144.481C278.318 144.817 278.396 145.063 278.552 145.219C278.708 145.375 278.954 145.453 279.29 145.453H280.838V146.785H279.002ZM282.426 137.425H283.938V146.785H282.426V137.425ZM282.426 133.825H283.938V135.661H282.426V133.825ZM290.078 147.001C289.214 147.001 288.446 146.791 287.774 146.371C287.114 145.951 286.604 145.369 286.244 144.625C285.884 143.881 285.704 143.041 285.704 142.105C285.704 141.169 285.884 140.329 286.244 139.585C286.604 138.841 287.114 138.259 287.774 137.839C288.446 137.419 289.214 137.209 290.078 137.209C290.942 137.209 291.704 137.419 292.364 137.839C293.036 138.259 293.552 138.841 293.912 139.585C294.272 140.329 294.452 141.169 294.452 142.105V142.645H287.306C287.366 143.245 287.51 143.767 287.738 144.211C287.966 144.655 288.278 145.003 288.674 145.255C289.07 145.507 289.538 145.633 290.078 145.633C290.69 145.633 291.224 145.483 291.68 145.183C292.136 144.883 292.472 144.469 292.688 143.941H294.254C293.954 144.877 293.432 145.621 292.688 146.173C291.956 146.725 291.086 147.001 290.078 147.001ZM292.814 141.277C292.694 140.449 292.4 139.795 291.932 139.315C291.464 138.823 290.846 138.577 290.078 138.577C289.31 138.577 288.692 138.823 288.224 139.315C287.756 139.795 287.462 140.449 287.342 141.277H292.814Z" fill="#54BD64"/>
<defs>
<clipPath id="clip0_748_461">
<rect width="27" height="27" fill="white" transform="translate(207.5 64.4277)"/>
</clipPath>
</defs>
</svg>
