<svg xmlns="http://www.w3.org/2000/svg" width="519" height="287" fill="none"><style>.B{fill:#fff}.C{stroke:#fff}.D{fill-rule:evenodd}</style><rect width="38" height="38" y="13.5" class="C" rx="15"/><path d="M15.6 36.8H9.3L8.2 40h-2l5.2-14.3h2.2L18.8 40h-2l-1.2-3.2zm-.5-1.5L12.5 28l-2.6 7.3H15zm16.3-1.4a11.1 11.1 0 0 1 0 1.1h-9.1c0 1.2.4 2 1 2.7.8.6 1.6.9 2.6.9.8 0 1.5-.2 2-.6a3 3 0 0 0 1.2-1.5h2a5 5 0 0 1-1.8 2.7c-.9.6-2 1-3.4 1-1 0-2-.3-2.9-.7a5.2 5.2 0 0 1-2-2c-.4-1-.7-2-.7-3.2s.3-2.2.7-3 1.2-1.6 2-2.1c.9-.5 1.8-.7 3-.7a5.2 5.2 0 0 1 4.8 2.6c.3.8.6 1.8.6 2.8zm-2-.4c0-.7-.1-1.3-.4-1.8a3 3 0 0 0-1.3-1.2 4 4 0 0 0-1.8-.4c-1 0-1.8.3-2.5.9-.7.6-1 1.4-1.1 2.5h7.1zm22.2-7.2h1.7l5.3 13H57l-1.4-3.8h-6L48 39.2h-1.7l5.3-13zM55 34l-2.4-6.2-2.5 6.2h5zm6.1-3h-1.7v-1H61v-1.5c0-.5 0-1 .2-1.2s.4-.6.7-.7a3 3 0 0 1 1.3-.2H65v1.3h-1.5c-.3 0-.6 0-.7.2-.2.2-.3.4-.3.8V30H65v1.3h-2.5v8H61v-8zm8.8 8.1c-.5 0-1 0-1.3-.2a1.4 1.4 0 0 1-.7-.7l-.2-1.2v-6H66v-1h1.7v-3h1.5v3h2.5v1.3h-2.5V37c0 .4 0 .6.2.8s.4.2.8.2h1.5v1.3h-1.8zm7.4.2c-.9 0-1.6-.2-2.3-.6-.7-.4-1.2-1-1.5-1.7s-.6-1.6-.6-2.6.2-1.7.6-2.5a4.1 4.1 0 0 1 3.8-2.4c.9 0 1.6.3 2.3.7A4.1 4.1 0 0 1 81 32c.4.8.6 1.6.6 2.5v.6h-7.2c0 .6.2 1.1.5 1.5s.5.8.9 1 .9.5 1.4.5c.6 0 1.1-.2 1.6-.5s.8-.7 1-1.2h1.6c-.3 1-.8 1.7-1.6 2.2-.7.6-1.6.8-2.6.8zm2.7-5.7c0-.8-.4-1.5-.8-2a3 3 0 0 0-3.8 0 4 4 0 0 0-.8 2H80zm3.5-3.8h1.4v1.5c.4-.6.8-1 1.3-1.3.5-.2 1-.3 1.7-.3h.7v1.4h-.7c-.6 0-1.1.1-1.5.3-.5.2-.8.5-1 1s-.4 1-.4 1.7v5h-1.5V30zm10.3-3.6h9v1.4h-7.4v4h7v1.5h-7v4.6h7.4v1.4h-9v-13zm11.6 4.9h-1.7v-1.3h1.7v-1.5c0-.5 0-1 .2-1.2s.4-.6.7-.7a3 3 0 0 1 1.3-.2h1.8v1.3h-1.5c-.3 0-.6 0-.8.2l-.2.8v1.3h2.5v1.3h-2.5v8h-1.5v-8zm6.6 0h-1.7v-1.3h1.7v-1.5c0-.5 0-1 .2-1.2s.4-.6.7-.7a3 3 0 0 1 1.3-.2h1.8v1.3h-1.5c-.4 0-.6 0-.8.2l-.2.8v1.3h2.5v1.3h-2.5v8H112v-8zm9.6 8.2c-.9 0-1.6-.2-2.3-.6-.7-.4-1.2-1-1.5-1.7s-.6-1.6-.6-2.6.2-1.7.6-2.5a4.1 4.1 0 0 1 3.8-2.4c.9 0 1.6.3 2.3.7a4.1 4.1 0 0 1 1.5 1.7c.4.8.6 1.6.6 2.5v.6h-7.2c0 .6.2 1.1.5 1.5s.5.8.9 1 .9.5 1.4.5c.6 0 1.1-.2 1.6-.5s.8-.7 1-1.2h1.6c-.3 1-.9 1.7-1.6 2.2-.7.6-1.6.8-2.6.8zm2.7-5.7c0-.8-.4-1.5-.9-2-.4-.4-1-.7-1.8-.7s-1.4.3-1.9.7a4 4 0 0 0-.8 2h5.4zm7.5 5.7c-1 0-1.7-.2-2.3-.6s-1.2-1-1.6-1.7-.5-1.6-.5-2.6.2-1.7.5-2.5 1-1.3 1.6-1.7 1.4-.7 2.3-.7a4 4 0 0 1 2.7 1 4 4 0 0 1 1.3 2.4H134a2.5 2.5 0 0 0-2.4-2 3 3 0 0 0-1.6.5c-.4.3-.7.7-.9 1.2s-.3 1.1-.3 1.8 0 1.3.3 1.9.5 1 1 1.2a2.5 2.5 0 0 0 3.1-.1c.4-.3.7-.8.8-1.5h1.6c-.2 1-.6 1.9-1.3 2.5a4 4 0 0 1-2.7 1zm8.8-.2c-.5 0-1 0-1.3-.2a1.4 1.4 0 0 1-.7-.7l-.2-1.2v-6h-1.7v-1h1.7v-3h1.5v3h2.5v1.3h-2.5V37c0 .4 0 .6.2.8s.4.2.8.2h1.5v1.3h-1.8zm6.8.2c-1.2 0-2.2-.2-2.9-.8-.7-.5-1-1.3-1.1-2.4h1.5c0 .7.3 1.2.7 1.5.4.3 1 .4 1.8.4a3 3 0 0 0 1.6-.3c.4-.3.6-.6.6-1s0-.6-.2-.8c0-.2-.3-.3-.6-.5s-.9-.2-1.6-.3l-2.2-.6c-.5-.3-.8-.6-1-1s-.3-.8-.3-1.3a2.3 2.3 0 0 1 1-2 4 4 0 0 1 2.4-.7c1.2 0 2.1.3 2.8.9.7.5 1 1.3 1 2.2h-1.5c0-.6-.2-1-.6-1.3s-1-.4-1.7-.4c-.6 0-1 0-1.4.3a1 1 0 0 0-.5 1c0 .3 0 .5.2.7.1.2.3.3.7.4.3.2.8.3 1.5.4l2.1.6c.5.2.9.5 1 .9.3.3.4.8.4 1.3 0 .9-.3 1.6-1 2.1s-1.6.7-2.7.7z" class="B"/><rect width="38" height="38" x="179" y="13.5" class="C" rx="15"/><path d="M197.8 29.8a4 4 0 0 1-1.2 3c-.8.8-2 1.2-3.7 1.2H190v6h-1.9V25.6h4.7c1.6 0 2.8.4 3.7 1.2a4 4 0 0 1 1.2 3zm-5 2.6c1.1 0 1.9-.2 2.4-.7s.7-1 .7-1.9c0-1.8-1-2.7-3-2.7H190v5.3h2.8zm11.4 7.8a6 6 0 0 1-2.3-.4 4 4 0 0 1-1.7-1.3 3.4 3.4 0 0 1-.6-1.8h1.9c0 .5.3 1 .8 1.4a3 3 0 0 0 1.9.5c.7 0 1.3-.2 1.7-.5s.6-.7.6-1.2a1.2 1.2 0 0 0-.7-1c-.4-.3-1.1-.6-2-.8-.9-.2-1.6-.4-2-.7a4 4 0 0 1-1.5-1 3 3 0 0 1-.5-1.8 2.7 2.7 0 0 1 .5-1.5c.3-.5.8-1 1.5-1.2.6-.3 1.3-.4 2.1-.4 1.3 0 2.3.3 3 1s1.3 1.4 1.3 2.5h-1.9a2 2 0 0 0-.7-1.4c-.4-.3-1-.5-1.7-.5s-1.2.1-1.6.4a1.3 1.3 0 0 0-.6 1.1 1.3 1.3 0 0 0 .3 1 3 3 0 0 0 1 .6 19.9 19.9 0 0 0 1.5.4l2 .7c.5.2.9.5 1.2 1 .4.4.6 1 .6 1.6 0 .6-.1 1.2-.5 1.7s-.8.9-1.5 1.2c-.6.2-1.3.4-2.1.4zm22-14h5.2c1 0 1.8.2 2.5.6a4 4 0 0 1 1.5 1.4 4.2 4.2 0 0 1 0 4c-.4.7-.9 1.1-1.5 1.5-.7.3-1.5.5-2.5.5h-3.6v5h-1.6v-13zm5.2 6.6c1 0 1.7-.3 2.1-.7.5-.5.7-1.1.7-1.9s-.2-1.3-.7-1.8c-.4-.5-1.1-.7-2-.7h-3.7v5h3.6zm6.2-6.5h1.5V31a3.7 3.7 0 0 1 1.3-1c.5-.3 1-.5 1.7-.5s1.4.2 1.8.5c.6.4 1 .8 1.1 1.3a3.9 3.9 0 0 1 .4 1.7v6.1H244v-6c0-.7-.2-1.2-.5-1.6s-1-.6-1.6-.6c-.3 0-.7 0-1.1.2a2 2 0 0 0-1 1c-.4.4-.6 1-.6 1.8v5.2h-1.5v-13zm14.1 13.1c-.9 0-1.7-.2-2.4-.6a4.2 4.2 0 0 1-1.6-1.7 6.6 6.6 0 0 1 0-5.1 4.2 4.2 0 0 1 1.6-1.7c.7-.4 1.5-.7 2.4-.7s1.7.3 2.4.7a4 4 0 0 1 1.6 1.7 5.7 5.7 0 0 1 0 5 4 4 0 0 1-1.6 1.8c-.7.4-1.5.6-2.4.6zm0-1.3c.7 0 1.2-.2 1.7-.5a4 4 0 0 0 1-1.2c.2-.6.3-1.2.3-1.9s-.1-1.3-.4-1.8c-.2-.5-.5-1-1-1.2-.4-.3-1-.5-1.6-.5s-1.2.2-1.6.5a3 3 0 0 0-1 1.2c-.2.5-.3 1.1-.3 1.8s0 1.3.3 1.9c.2.5.6 1 1 1.2.4.3 1 .5 1.6.5zm9.5 1.1c-.5 0-1 0-1.3-.2a1.4 1.4 0 0 1-.7-.7l-.2-1.2v-6h-1.7V30h1.7v-3h1.5v3h2.5v1.3h-2.5V37c0 .4.1.6.3.8s.4.2.7.2h1.5v1.3h-1.8zm7.6.2c-1 0-1.7-.2-2.4-.6a4.2 4.2 0 0 1-1.6-1.7c-.4-.8-.6-1.6-.6-2.6s.2-1.7.6-2.5a4.2 4.2 0 0 1 1.6-1.7c.7-.4 1.5-.7 2.4-.7s1.7.3 2.4.7a4 4 0 0 1 1.5 1.7 5.7 5.7 0 0 1 0 5 4 4 0 0 1-1.5 1.8c-.7.4-1.5.6-2.4.6zm0-1.3c.6 0 1.2-.2 1.6-.5a3 3 0 0 0 1-1.2c.2-.6.3-1.2.3-1.9s0-1.3-.3-1.8c-.2-.5-.6-1-1-1.2-.4-.3-1-.5-1.6-.5s-1.2.2-1.7.5a4 4 0 0 0-1 1.2 5.8 5.8 0 0 0 0 3.7c.3.5.6 1 1 1.2.5.3 1 .5 1.7.5zm9.6 1.3c-1.2 0-2.1-.2-2.8-.8-.7-.5-1.1-1.3-1.2-2.4h1.6c0 .7.3 1.2.7 1.5.4.3 1 .4 1.7.4a3 3 0 0 0 1.6-.3c.4-.3.6-.6.6-1l-.1-.8c-.1-.2-.4-.3-.7-.5s-.8-.2-1.5-.3l-2.2-.6c-.5-.3-.9-.6-1-1s-.4-.8-.4-1.3a2.3 2.3 0 0 1 1-2 4 4 0 0 1 2.4-.7c1.2 0 2.2.3 2.8.9.7.5 1 1.3 1 2.2h-1.4c0-.6-.3-1-.7-1.3s-1-.4-1.7-.4c-.5 0-1 0-1.3.3a1 1 0 0 0-.6 1c0 .3 0 .5.2.7l.7.4 1.6.4 2 .6c.5.2 1 .5 1.1.9.3.3.4.8.4 1.3 0 .9-.4 1.6-1 2.1a5 5 0 0 1-2.8.7zm5.3-13.1h1.5V31a3.7 3.7 0 0 1 1.3-1 3.3 3.3 0 0 1 3.6 0c.4.4.8.8 1 1.3a3.9 3.9 0 0 1 .4 1.7v6.1H290v-6c0-.7-.2-1.2-.6-1.6s-.8-.6-1.5-.6c-.4 0-.7 0-1.1.2-.4.2-.8.5-1.1 1a3 3 0 0 0-.5 1.8v5.2h-1.5v-13zm14.1 13.1c-.9 0-1.7-.2-2.4-.6a4.2 4.2 0 0 1-1.6-1.7 6.6 6.6 0 0 1 0-5.1 4.2 4.2 0 0 1 1.6-1.7c.7-.4 1.5-.7 2.4-.7s1.7.3 2.4.7a4 4 0 0 1 1.6 1.7c.4.8.5 1.6.5 2.5s-.1 1.8-.5 2.6a4 4 0 0 1-1.6 1.7c-.7.4-1.5.6-2.4.6zm0-1.3c.7 0 1.2-.2 1.6-.5.5-.3.8-.7 1-1.2.2-.6.4-1.2.4-1.9s-.2-1.3-.4-1.8-.5-1-1-1.2c-.4-.3-1-.5-1.6-.5s-1.2.2-1.6.5c-.5.3-.8.7-1 1.2-.2.5-.3 1.1-.3 1.8s0 1.3.3 1.9c.2.5.5 1 1 1.2.4.3 1 .5 1.6.5zm11-8.5c.9 0 1.6.3 2.3.7a4 4 0 0 1 1.5 1.7 7 7 0 0 1 0 5.1 4 4 0 0 1-1.5 1.7c-.7.4-1.4.6-2.3.6a4 4 0 0 1-1.9-.4c-.5-.2-1-.6-1.2-1.1v5H304v-13h1.5v1.4c.3-.5.8-1 1.3-1.2s1.1-.5 1.9-.5zm-.2 1.4c-.7 0-1.2.2-1.7.5a4 4 0 0 0-1 1.2 5.8 5.8 0 0 0 0 3.7c.3.5.6 1 1 1.2.5.3 1 .5 1.7.5a2.7 2.7 0 0 0 2.6-1.7c.2-.6.3-1.2.3-1.9s0-1.3-.3-1.8c-.2-.5-.6-1-1-1.2-.4-.3-1-.5-1.6-.5z" class="B"/><rect width="38" height="38" x="179" y="87.5" class="C" rx="15"/><path d="M192 99.6V114h-2V99.6h2zm2.4 8.7c0-1.2.3-2.2.7-3a5.1 5.1 0 0 1 4.7-2.8 5 5 0 0 1 4.2 2.2v-6h2V114h-2v-2.1a4 4 0 0 1-1.6 1.6 5 5 0 0 1-2.6.7 5 5 0 0 1-2.7-.8c-.8-.5-1.5-1.2-2-2s-.7-2-.7-3.1zm9.6 0c0-.8-.1-1.6-.5-2.2s-.8-1.1-1.4-1.5a3.7 3.7 0 0 0-1.9-.5 3.8 3.8 0 0 0-2 .5c-.5.3-1 .8-1.3 1.5s-.5 1.3-.5 2.2c0 .9.1 1.6.5 2.3a3.8 3.8 0 0 0 3.3 2c.7 0 1.3-.2 2-.6a3.7 3.7 0 0 0 1.3-1.4c.4-.7.5-1.4.5-2.3zm22.2-8h1.6v13h-1.6v-13zm4 3.6h1.4v1.3a3.5 3.5 0 0 1 3-1.6c.7 0 1.4.2 1.9.5.5.4.8.8 1 1.3a3.9 3.9 0 0 1 .4 1.7v6.1h-1.5v-6c0-.7-.2-1.2-.5-1.6s-.9-.6-1.6-.6c-.3 0-.7 0-1.1.2a2 2 0 0 0-1 1c-.4.4-.5 1-.5 1.8v5.2H230V104zm10-3.6h4.3c1.4 0 2.6.2 3.5.8a6 6 0 0 1 2.2 2.3c.4 1 .7 2.1.7 3.3s-.3 2.4-.7 3.4c-.5 1-1.2 1.7-2.2 2.3-1 .5-2.1.8-3.5.8h-4.2v-13zm4.3 11.5c1 0 2-.2 2.6-.7.8-.4 1.3-1 1.6-1.8a7.2 7.2 0 0 0 0-5.2c-.3-.7-.8-1.3-1.6-1.8a5 5 0 0 0-2.6-.6h-2.7v10h2.7zm12.1 1.6c-.8 0-1.6-.2-2.3-.6-.6-.4-1.2-1-1.5-1.7s-.6-1.6-.6-2.6.2-1.7.6-2.5a4.1 4.1 0 0 1 3.8-2.4c.9 0 1.6.3 2.3.7a4.1 4.1 0 0 1 1.6 1.7c.3.8.5 1.6.5 2.5v.6h-7.2l.5 1.5c.2.4.5.8 1 1s.8.5 1.3.5c.6 0 1.2-.2 1.6-.5s.8-.7 1-1.2h1.6c-.3 1-.8 1.7-1.6 2.2-.7.6-1.6.8-2.6.8zm2.8-5.7c-.2-.8-.5-1.5-1-2-.4-.4-1-.7-1.8-.7s-1.4.3-1.8.7c-.5.5-.8 1.2-1 2h5.6zm6.7 5.7c-1.2 0-2.1-.2-2.8-.8-.8-.5-1.1-1.3-1.2-2.4h1.5c.1.7.3 1.2.7 1.5.4.3 1 .4 1.8.4a3 3 0 0 0 1.6-.3c.4-.3.6-.6.6-1s0-.6-.2-.8c0-.2-.3-.3-.6-.5s-.9-.2-1.5-.3l-2.2-.6c-.5-.3-.9-.6-1.1-1s-.3-.8-.3-1.3a2.3 2.3 0 0 1 1-2 4 4 0 0 1 2.4-.7c1.2 0 2.1.3 2.8.9.7.5 1 1.3 1 2.2h-1.5c0-.6-.2-1-.6-1.3s-1-.4-1.7-.4c-.5 0-1 0-1.4.3a1 1 0 0 0-.5 1c0 .3 0 .5.2.7.1.2.4.3.7.4.3.2.9.3 1.5.4l2.2.6c.6.2.8.5 1 .9.2.3.3.8.3 1.3 0 .9-.3 1.6-1 2.1s-1.6.7-2.7.7zm5.2-9.5h1.6v9.3h-1.6V104zm0-3.6h1.6v1.8h-1.6v-1.8zm7.9 16.7c-1.3 0-2.2-.2-2.9-.8s-1-1.3-1.2-2.2h1.5c.1.6.4 1 .8 1.3.4.3 1 .4 1.8.4s1.5-.2 2-.6c.6-.4.9-1 .9-2.1v-1.1a3.5 3.5 0 0 1-1.3 1.1c-.5.3-1.1.4-1.8.4-1 0-1.7-.2-2.4-.6a5 5 0 0 1-1.5-1.7 6.6 6.6 0 0 1 0-5.1 5 5 0 0 1 1.5-1.7c.7-.4 1.5-.7 2.4-.7.7 0 1.3.2 1.8.5s1 .7 1.3 1.2v-1.4h1.5v9c0 1-.2 1.8-.6 2.4-.4.6-.9 1-1.6 1.3s-1.4.4-2.2.4zm0-5c.6 0 1.1 0 1.6-.4a3 3 0 0 0 1-1.2 5.8 5.8 0 0 0 0-3.7c-.2-.5-.6-1-1-1.2a3 3 0 0 0-3.3 0 4 4 0 0 0-1 1.2 5.8 5.8 0 0 0 0 3.7c.3.5.6 1 1 1.2.5.3 1 .5 1.7.5zm6.6-8.1h1.5v1.3a3.5 3.5 0 0 1 3-1.6c.7 0 1.3.2 1.8.5.5.4.9.8 1.1 1.3a3.9 3.9 0 0 1 .4 1.7v6.1H292v-6c0-.7-.2-1.2-.5-1.6s-1-.6-1.6-.6c-.4 0-.7 0-1.1.2-.4.2-.8.5-1.1 1a3 3 0 0 0-.5 1.8v5.2h-1.5V104z" class="B"/><rect width="38" height="38" x="179" y="161.5" class="C" rx="15"/><path d="m200.4 180 4.4-7.6 2.1 7.6-2.1 7.6-4.4-7.6zm-2.2 1.2 4.4 7.7-7.7-2-5.5-5.7h8.8zm4.4-10-4.4 7.6h-8.8l5.5-5.7 7.7-2zm6.3 6.2-2.7-10-10 2.7-1.5 2.6h-3l-7.4 7.3 7.4 7.3h3l1.5 2.6 10 2.7 2.7-10-1.5-2.6 1.5-2.6zm22.2 10c-1 0-2-.2-2.7-.5-.8-.4-1.4-1-1.8-1.8s-.6-1.6-.6-2.7v-8.1h1.6v8c0 1.3.3 2.2 1 2.8.5.6 1.4.9 2.5.9s2-.3 2.6-.9c.6-.6 1-1.5 1-2.7v-8.1h1.5v8c0 1.2-.2 2-.6 2.8s-1 1.4-1.7 1.8a6 6 0 0 1-2.8.5zm7.2-9.5h1.5v1.3a3.5 3.5 0 0 1 3-1.6c.8 0 1.4.2 1.9.5.5.4.8.8 1 1.3a3.9 3.9 0 0 1 .4 1.7v6.1h-1.5v-6c0-.7-.1-1.2-.5-1.6s-.9-.6-1.6-.6c-.3 0-.7 0-1 .2-.5.2-.8.5-1.2 1-.3.4-.4 1-.4 1.8v5.2h-1.6V178zm10 0h1.5v9.3h-1.5V178zm0-3.6h1.5v1.8h-1.5v-1.8zm6.9 13c-.6 0-1-.2-1.3-.3a1.4 1.4 0 0 1-.7-.7c-.2-.3-.2-.7-.2-1.2v-6h-1.8V178h1.8v-3h1.5v3h2.5v1.3h-2.5v5.7c0 .4 0 .6.2.8s.4.2.7.2h1.6v1.3h-1.8zm2.8 2.2h1.4l.7-.1.4-.4.3-.6.4-1.2-3.6-9.3h1.7l2.7 7.4 2.7-7.4h1.6l-4.1 10.9-.5 1c-.2.4-.4.6-.7.7-.3.2-.6.3-1 .3h-2v-1.3z" class="B"/><rect width="38" height="38" x="179" y="235.5" class="C" rx="15"/><path d="m198 243.8-10.6 5.3V260l10.6 5.3 10.6-5.3v-11l-10.6-5.3zm0 1.9 9 4.4v8.8l-9 4.4-9-4.4V250l9-4.4zm-2.4 4a4.9 4.9 0 0 0-5 4.8 4.9 4.9 0 0 0 5 4.9c1.2 0 2.3-.5 3.1-1.2l-1.4-1c-.4.3-1 .5-1.7.5-1.8 0-3.3-1.4-3.3-3.2s1.5-3.3 3.3-3.3c.6 0 1.3.3 1.7.6l1.4-1a4.8 4.8 0 0 0-3.1-1.2zm4 1.6v.8h-.8v1.6h.8v1.6h-.8v1.6h.8v.9h1.7v-.9h1.6v.9h1.6v-.9h.8v-1.6h-.8v-1.6h.8V252h-.8v-.8h-1.6v.8h-1.7v-.8h-1.6zm1.7 2.4h1.6v1.6h-1.7v-1.6zm29.6 7.7a6 6 0 0 1-3.4-.9 5.7 5.7 0 0 1-2.1-2.4c-.5-1-.7-2.1-.7-3.4s.2-2.3.7-3.3a5.6 5.6 0 0 1 5.5-3.4c1 0 1.8.2 2.5.6a4.8 4.8 0 0 1 1.9 1.6 6 6 0 0 1 .9 2.3h-1.6c-.1-.6-.4-1-.7-1.5a3.4 3.4 0 0 0-1.3-1.1 4 4 0 0 0-1.7-.4c-1 0-1.9.3-2.6.7-.6.5-1.1 1.1-1.5 1.9a7.3 7.3 0 0 0 0 5.3c.4.8.9 1.4 1.5 1.9.7.4 1.6.7 2.6.7.7 0 1.3-.2 1.8-.5a3.6 3.6 0 0 0 1.3-1.2c.4-.5.6-1.1.7-1.8h1.6c-.1 1-.4 1.8-1 2.5a5 5 0 0 1-1.8 1.8c-.7.4-1.6.6-2.6.6zm8.5-4h-1.9l.3-1.2h1.9l.5-2.9h-1.8l.2-1.3h1.9l.7-3.7h1.5l-.7 3.7h2.9l.7-3.7h1.5l-.7 3.7h1.9l-.3 1.3h-1.9l-.5 2.9h1.8l-.2 1.3h-1.9l-.7 3.7H243l.7-3.7h-2.9l-.7 3.7h-1.5l.7-3.7zm4.6-1.2.6-2.9h-2.9l-.5 2.9h2.8z" class="B"/><rect width="38" height="38" x="358" y="87.5" class="C" rx="15"/><mask id="A" width="28" height="29" x="363" y="92" maskUnits="userSpaceOnUse"><path d="M363 92.5h28v28h-28v-28z" class="B"/></mask><g mask="url(#A)"><path stroke-width="2" d="M370 93.5h14a6 6 0 0 1 6 6v14a6 6 0 0 1-6 6h-14a6 6 0 0 1-6-6v-14a6 6 0 0 1 6-6z" class="C"/><path d="M384.3 98.8c-4.8 0-6.6 3.4-8 6.2l-1 1.7c-1.5 3-2.7 4.8-5.6 4.8a1.4 1.4 0 0 0-1.3 1 1.4 1.4 0 0 0 0 .9 1.4 1.4 0 0 0 .3.4c.2.2.3.3.5.3l.5.1c4.8 0 6.6-3.4 8-6.2l1-1.7c1.5-3 2.6-4.8 5.6-4.8.3 0 .5 0 .7-.2l.6-.6a1.4 1.4 0 0 0 0-.8 1.4 1.4 0 0 0-.8-1 1.4 1.4 0 0 0-.5-.1z" class="B"/></g><path d="M405.2 100.5h1.6v11.6h6.5v1.4h-8v-13zm13.7 13.2c-.9 0-1.7-.2-2.4-.6a4.2 4.2 0 0 1-1.6-1.8c-.3-.7-.5-1.5-.5-2.5s.2-1.8.5-2.5a4.2 4.2 0 0 1 1.6-1.7c.7-.5 1.5-.7 2.4-.7s1.8.2 2.4.7a4 4 0 0 1 1.6 1.7 5.7 5.7 0 0 1 0 5 4 4 0 0 1-1.6 1.8c-.6.4-1.4.6-2.4.6zm0-1.4a3 3 0 0 0 1.7-.4 4 4 0 0 0 1-1.2 5.8 5.8 0 0 0 0-3.7c-.3-.5-.6-1-1-1.3-.5-.3-1-.4-1.7-.4s-1.2.1-1.6.4c-.4.3-.8.8-1 1.3a5.8 5.8 0 0 0 0 3.7c.2.5.6.9 1 1.2.4.3 1 .4 1.6.4zm9.5 1.2c-.5 0-1 0-1.3-.2a1.4 1.4 0 0 1-.7-.7l-.2-1.2v-6h-1.7v-1.3h1.7v-2.8h1.5v2.8h2.5v1.4h-2.5v5.7c0 .3.1.6.3.7s.4.3.7.3h1.5v1.3h-1.8zm6.6 0c-.5 0-1 0-1.3-.2a1.4 1.4 0 0 1-.7-.7l-.2-1.2v-6h-1.7v-1.3h1.7v-2.8h1.5v2.8h2.5v1.4h-2.5v5.7c0 .3.1.6.3.7s.4.3.7.3h1.5v1.3H435zm3.4-9.4h1.5v9.4h-1.5v-9.4zm0-3.6h1.5v1.9h-1.5v-1.9zm7.7 13.2a4.1 4.1 0 0 1-3.9-2.4c-.4-.8-.5-1.5-.5-2.5s.2-1.8.5-2.5a4 4 0 0 1 3.9-2.4c.8 0 1.6.2 2.3.7a4.1 4.1 0 0 1 1.5 1.7c.4.7.6 1.6.6 2.5v.6h-7.2c0 .6.2 1 .4 1.5s.6.8 1 1 .8.4 1.4.4c.6 0 1.1-.1 1.6-.4s.8-.7 1-1.2h1.6a5 5 0 0 1-1.6 2.2c-.7.5-1.6.8-2.6.8zm2.7-5.7c-.1-.8-.4-1.5-.9-2-.4-.5-1-.7-1.8-.7s-1.4.2-1.9.7c-.4.5-.7 1.2-.9 2h5.5z" class="B"/><rect width="38" height="38" x="358" y="161.5" class="C" rx="15"/><g class="B D" clip-path="url(#B)"><path d="M367 171.2v.5l.4.4a1.4 1.4 0 0 0 .9.4h11.2c3.7-.3 6 4.5 3.1 7-.8.7-1.8 1-3.1 1h-4.9a1.3 1.3 0 0 0-.5.1 1.4 1.4 0 0 0-.4.3c-.2.1-.3.3-.3.4a1.3 1.3 0 0 0-.2.5c0 .2 0 .4.2.6l.3.4.4.3h5.9l4.8 7.8.6.5a1.4 1.4 0 0 0 .7.2c1.2 0 1.8-1.3 1.1-2.3l-4.3-6.8c6.7-3.2 3.9-13-3.4-12.7h-11.2a1.4 1.4 0 0 0-1 .4c-.2.3-.3.6-.3 1z"/></g><path d="M405.2 174.5h5.4a5 5 0 0 1 3.3 1c.8.7 1.2 1.6 1.2 2.7 0 .7-.2 1.3-.6 1.8-.3.5-.8 1-1.5 1.3a2.2 2.2 0 0 1 1.1.8c.3.3.4.8.5 1.3l.6 4.1h-1.6l-.5-3.4c0-.5-.2-1-.4-1.2a1.7 1.7 0 0 0-.8-.7c-.3-.2-.7-.2-1.2-.2h-3.9v5.5h-1.6v-13zm5.4 6c1 0 1.7-.2 2.1-.6.5-.4.7-1 .7-1.7s-.2-1.2-.7-1.6c-.4-.4-1.2-.6-2.1-.6h-3.8v4.5h3.8zm6.2-2.4h1.5v9.4h-1.5v-9.4zm0-3.6h1.5v1.9h-1.5v-1.9zm2.8 3.6h1.6l2.9 7.7 2.9-7.7h1.6l-3.7 9.4h-1.6l-3.7-9.4zm14.2 9.6c-.9 0-1.6-.2-2.3-.6-.7-.4-1.2-1-1.5-1.8s-.6-1.5-.6-2.5.2-1.8.6-2.5.8-1.3 1.5-1.7c.7-.5 1.4-.7 2.3-.7s1.6.2 2.3.7a4.1 4.1 0 0 1 1.5 1.7c.4.7.6 1.6.6 2.5v.6H431c0 .6.2 1 .4 1.5s.6.8 1 1 .8.4 1.4.4c.6 0 1.1-.1 1.6-.4s.8-.7 1-1.2h1.6a5 5 0 0 1-1.6 2.2c-.7.5-1.6.8-2.6.8zm2.7-5.7c0-.8-.4-1.5-.9-2-.4-.5-1-.7-1.8-.7s-1.4.2-1.9.7a4 4 0 0 0-.8 2h5.4z" class="B"/><rect width="38" height="38" x="358" y="13.5" class="C" rx="15"/><path d="M378.4 29.8a4 4 0 0 1-1.3 3c-.8.8-2 1.2-3.7 1.2h-2.8v6h-1.9V25.6h4.7c1.6 0 2.9.4 3.7 1.2a4 4 0 0 1 1.3 3zm-5 2.6c1 0 1.8-.2 2.3-.7s.8-1 .8-1.9c0-1.8-1-2.7-3.1-2.7h-2.8v5.3h2.8zm9.2-1.9A3.6 3.6 0 0 1 384 29c.6-.4 1.4-.5 2.3-.5v1.9h-.5c-2.1 0-3.2 1.1-3.2 3.4V40h-1.9V28.7h2v1.8zm22.6-4.2h5.2c1 0 1.8.1 2.5.5a4 4 0 0 1 1.5 1.4 4.2 4.2 0 0 1 0 4c-.4.7-.9 1.1-1.5 1.5-.7.3-1.5.5-2.5.5h-3.6v5h-1.6v-13zm5.2 6.5c1 0 1.7-.3 2.1-.7.5-.5.7-1.1.7-1.9s-.2-1.3-.7-1.8c-.4-.5-1.1-.7-2-.7h-3.7v5h3.6zm6.2-3h1.5v1.6c.3-.6.7-1 1.2-1.3.6-.2 1.1-.3 1.8-.3h.7v1.4h-.8l-1.5.3c-.4.2-.7.5-1 1s-.4 1-.4 1.7v5h-1.5V30zm10.7 9.6c-.8 0-1.6-.2-2.3-.6-.6-.4-1.2-1-1.5-1.7s-.6-1.6-.6-2.6.2-1.7.6-2.5a4.1 4.1 0 0 1 3.8-2.4c.9 0 1.6.3 2.3.7a4.1 4.1 0 0 1 1.6 1.7c.3.8.5 1.6.5 2.5v.6h-7.1c0 .6.2 1.1.4 1.5s.5.8 1 1 .8.5 1.3.5c.6 0 1.2-.2 1.6-.5s.8-.7 1-1.2h1.6c-.3 1-.8 1.7-1.6 2.2-.7.6-1.6.8-2.6.8zm2.8-5.7c-.2-.8-.5-1.5-1-2-.4-.4-1-.7-1.8-.7s-1.4.3-1.8.7c-.5.5-.8 1.2-1 2h5.6zm3.4-3.8h1.4v1.3c.3-.5.7-.9 1.1-1.1.5-.3 1-.5 1.7-.5a3 3 0 0 1 2.8 1.9 3.5 3.5 0 0 1 1.2-1.4c.5-.3 1.2-.5 1.9-.5s1.2.2 1.7.5a2.9 2.9 0 0 1 1 1.3 4 4 0 0 1 .4 1.7v6.1h-1.5v-6c0-.7-.2-1.2-.5-1.6-.4-.4-.8-.6-1.4-.6a3 3 0 0 0-1.7.6c-.5.4-.8 1.2-.8 2.4v5.2h-1.5v-6c0-.7-.1-1.2-.5-1.6-.3-.4-.8-.6-1.4-.6-.5 0-1 .2-1.6.6-.5.4-.8 1.2-.8 2.4v5.2h-1.5V30zm15.4 0h1.5v9.3H449V30zm0-3.6h1.5V28H449v-1.8zm7.7 13.1a4 4 0 0 1-2.3-.6c-.7-.4-1.2-1-1.6-1.7s-.5-1.6-.5-2.6.2-1.7.5-2.5.9-1.3 1.6-1.7c.6-.4 1.4-.7 2.3-.7s1.6.3 2.2.7a4.1 4.1 0 0 1 1.6 1.7c.3.8.5 1.6.5 2.5v.6h-7.1c0 .6.2 1.1.4 1.5s.6.8 1 1 .8.5 1.4.5c.6 0 1.1-.2 1.6-.5s.7-.7 1-1.2h1.5a4 4 0 0 1-1.5 2.2 4 4 0 0 1-2.6.8zm2.7-5.7c-.1-.8-.4-1.5-.9-2-.5-.4-1-.7-1.8-.7s-1.4.3-1.9.7c-.5.5-.8 1.2-.9 2h5.5zm3.4-3.8h1.5v1.5c.3-.6.7-1 1.2-1.3.5-.2 1.1-.3 1.7-.3h.8v1.4h-.8c-.6 0-1 .1-1.5.3-.4.2-.7.5-1 1s-.4 1-.4 1.7v5h-1.5V30zm10.7 9.5c-.9 0-1.6-.2-2.3-.6-.7-.4-1.2-1-1.5-1.7s-.6-1.6-.6-2.6.2-1.7.6-2.5a4.1 4.1 0 0 1 3.8-2.4c.9 0 1.6.3 2.3.7a4.1 4.1 0 0 1 1.5 1.7c.4.8.6 1.6.6 2.5v.6h-7.2c.1.6.2 1.1.5 1.5s.5.8 1 1 .8.5 1.3.5c.6 0 1.2-.2 1.6-.5s.8-.7 1-1.2h1.6c-.3 1-.8 1.7-1.6 2.2-.7.6-1.6.8-2.6.8zm2.7-5.7c0-.8-.4-1.5-.8-2-.5-.4-1.1-.7-1.9-.7s-1.4.3-1.8.7c-.5.5-.8 1.2-1 2h5.5zm7-7.4h5.3c1 0 1.8.1 2.4.5a3 3 0 0 1 1.5 1.4c.4.6.5 1.3.5 2s-.1 1.5-.5 2c-.3.7-.8 1.1-1.5 1.5-.6.3-1.4.5-2.4.5h-3.6v5h-1.6v-13zm5.3 6.5c1 0 1.6-.3 2-.7.6-.5.8-1.1.8-1.9s-.2-1.3-.7-1.8c-.5-.5-1.2-.7-2.1-.7h-3.6v5h3.6zm6.2-3h1.4v1.6c.4-.6.8-1 1.3-1.3.5-.2 1-.3 1.7-.3h.7v1.4h-.7c-.6 0-1 .1-1.5.3-.4.2-.8.5-1 1s-.4 1-.4 1.7v5h-1.5V30zm10.8 9.6c-.9 0-1.7-.2-2.4-.6a4.2 4.2 0 0 1-1.6-1.7 6.6 6.6 0 0 1 0-5.1 4.2 4.2 0 0 1 1.6-1.7c.7-.4 1.5-.7 2.4-.7s1.8.3 2.4.7a4 4 0 0 1 1.6 1.7 5.7 5.7 0 0 1 0 5 4 4 0 0 1-1.6 1.8c-.6.4-1.4.6-2.4.6zm0-1.3c.7 0 1.2-.2 1.7-.5a4 4 0 0 0 1-1.2 5.8 5.8 0 0 0 0-3.7c-.3-.5-.6-1-1-1.2-.5-.3-1-.5-1.7-.5s-1.2.2-1.6.5a3 3 0 0 0-1 1.2 5.8 5.8 0 0 0 0 3.7c.2.5.6 1 1 1.2.4.3 1 .5 1.6.5z" class="B"/><rect width="38" height="38" y="87.5" class="C" rx="15"/><path d="M19.6 110.8h-6.3l-1.1 3.2h-2l5.2-14.3h2.2l5.1 14.3h-2l-1.1-3.2zm-.5-1.5-2.6-7.3-2.7 7.3h5.3zm6.9-8.5c-.4 0-.7-.1-1-.3a1.2 1.2 0 0 1-.3-1c0-.3.1-.6.4-.9a1.2 1.2 0 0 1 .9-.3 1.1 1.1 0 0 1 .9.3 1.2 1.2 0 0 1 .3 1 1.2 1.2 0 0 1-.3.9 1.1 1.1 0 0 1-1 .3zm.9 1.9V114H25v-11.3h2zm22.3-2.4h1.6v13h-1.6v-13zm5.5 0v10.6c0 .4 0 .6.2.8s.4.2.7.2H57v1.3h-1.6c-.5 0-1 0-1.3-.2a1.4 1.4 0 0 1-.6-.7c-.2-.3-.3-.7-.3-1.2v-10.8h1.6zm5.3 0v10.6c0 .4 0 .6.2.8s.4.2.8.2h1.2v1.3h-1.5c-.5 0-1 0-1.3-.2a1.4 1.4 0 0 1-.7-.7l-.2-1.2v-10.8H60zm11.6 13h-1.4v-1.4c-.3.4-.8.8-1.3 1.1a3 3 0 0 1-1.7.4c-.8 0-1.4-.1-1.9-.5a3 3 0 0 1-1-1.2c-.3-.5-.4-1.1-.4-1.7v-6h1.5v6c0 .6.1 1.2.5 1.6s.9.6 1.6.6l1-.2c.5-.2.8-.5 1.1-1 .4-.4.5-1 .5-1.8V104h1.5v9.3zm5.6.1c-1.2 0-2.1-.2-2.9-.8-.7-.5-1-1.3-1.1-2.4h1.5c0 .7.3 1.2.7 1.5.4.3 1 .4 1.8.4a3 3 0 0 0 1.6-.3c.4-.3.6-.6.6-1s0-.6-.2-.8c0-.2-.3-.3-.6-.5s-.9-.2-1.6-.3l-2.1-.6c-.6-.3-1-.6-1.1-1s-.3-.8-.3-1.3a2.3 2.3 0 0 1 1-2 4 4 0 0 1 2.4-.7c1.2 0 2.1.3 2.8.9.7.5 1 1.3 1 2.2h-1.5c0-.6-.2-1-.6-1.3s-1-.4-1.7-.4c-.5 0-1 0-1.4.3a1 1 0 0 0-.5 1c0 .3 0 .5.2.7.1.2.3.3.7.4.3.2.8.3 1.5.4l2.1.6c.5.2.9.5 1.1.9.2.3.3.8.3 1.3 0 .9-.3 1.6-1 2.1s-1.6.7-2.7.7zm8.4-.2c-.5 0-1 0-1.3-.2a1.4 1.4 0 0 1-.7-.7l-.2-1.2v-6h-1.7V104h1.7v-3h1.5v3h2.5v1.3H85v5.7c0 .4 0 .6.2.8s.4.2.8.2h1.5v1.3h-1.8zM89 104h1.4v1.5c.3-.6.8-1 1.3-1.3.5-.2 1-.3 1.7-.3h.7v1.4h-.8c-.5 0-1 .1-1.4.3-.5.2-.8.5-1 1s-.4 1-.4 1.7v5H89V104zm9.5 9.5c-1 0-1.8-.2-2.4-.7s-1-1.1-1-2c0-.6.2-1 .5-1.4l1-1 2-.5 2.9-.6v-.7c0-.6-.2-1-.6-1.2-.3-.2-.8-.3-1.5-.3-.6 0-1.2.1-1.7.4s-.7.7-.7 1.3h-1.5c0-1 .4-1.8 1.1-2.3.8-.5 1.7-.8 2.8-.8 1.2 0 2 .3 2.7.8.5.4.8 1 .8 2v6.8h-1.4V112c-.3.5-.8.9-1.3 1.1s-1 .3-1.7.3zm.1-1.3a3.5 3.5 0 0 0 1.4-.3 2.6 2.6 0 0 0 1-.8c.3-.4.5-1 .5-1.5v-1l-2.8.5-1.5.6c-.3.2-.5.6-.5 1 0 .5.2.9.5 1.1.3.3.8.4 1.4.4zm9.4 1.1c-.5 0-1 0-1.3-.2a1.4 1.4 0 0 1-.6-.7c-.2-.3-.3-.7-.3-1.2v-6h-1.7V104h1.7v-3h1.6v3h2.5v1.3h-2.5v5.7c0 .4 0 .6.2.8s.4.2.7.2h1.6v1.3H108zm7.6.2c-.9 0-1.7-.2-2.4-.6a4.2 4.2 0 0 1-1.6-1.7 6.6 6.6 0 0 1 0-5.1 4.2 4.2 0 0 1 1.6-1.7c.7-.4 1.5-.7 2.4-.7s1.7.3 2.4.7a4 4 0 0 1 1.6 1.7c.4.8.5 1.6.5 2.5s-.1 1.8-.5 2.6a4 4 0 0 1-1.6 1.7c-.7.4-1.5.6-2.4.6zm0-1.3c.7 0 1.2-.2 1.6-.5.5-.3.8-.7 1-1.2.2-.6.4-1.2.4-1.9s-.2-1.3-.4-1.8-.5-1-1-1.2c-.4-.3-1-.5-1.6-.5s-1.2.2-1.6.5c-.5.3-.8.7-1 1.2-.2.5-.3 1.1-.3 1.8s0 1.3.3 1.9c.2.5.5 1 1 1.2.4.3 1 .5 1.6.5zm6.3-8.2h1.5v1.5c.3-.6.8-1 1.3-1.3.5-.2 1-.3 1.7-.3h.7v1.4h-.8l-1.5.3c-.4.2-.7.5-1 1s-.3 1-.3 1.7v5H122V104z" class="B"/><rect width="38" height="38" y="161.5" class="C" rx="15"/><g class="B"><path d="M18.2 171.4h-2.5a2.5 2.5 0 0 0 0 5h2.5v-5zm0-1.7h4.1a4.2 4.2 0 0 1 2.5 7.5 4.2 4.2 0 0 1-5 6.7v3.3a4.2 4.2 0 1 1-6.6-3.4 4.2 4.2 0 0 1 0-6.6 4.2 4.2 0 0 1 2.5-7.5h2.5zm1.6 1.7v5h2.5a2.5 2.5 0 1 0 0-5h-2.5zM15.7 183h2.5v-5h-2.5a2.5 2.5 0 0 0 0 5zm-2.5 4.2c0-1.4 1-2.5 2.5-2.5h2.5v2.5a2.5 2.5 0 0 1-2.5 2.4 2.5 2.5 0 0 1-2.5-2.4zm6.6-6.7z" class="D"/><path d="M46.2 174.3H55v1.4h-7v4h6.6v1.5h-6.7v6h-1.6v-13zm10.2 3.6h1.5v9.3h-1.5V178zm0-3.6h1.5v1.8h-1.5v-1.8zm7.8 16.7c-1.2 0-2.2-.2-2.9-.8s-1-1.3-1.2-2.2h1.5c.1.6.4 1 .8 1.3.5.3 1 .4 1.8.4s1.5-.2 2-.6c.6-.4 1-1 1-2.1v-1.1a3.5 3.5 0 0 1-1.4 1.1c-.5.3-1.1.4-1.8.4-.9 0-1.7-.2-2.3-.6-.7-.4-1.2-1-1.5-1.7-.4-.8-.5-1.6-.5-2.6s.1-1.7.5-2.5a4 4 0 0 1 1.5-1.7c.6-.4 1.4-.7 2.3-.7.7 0 1.3.2 1.9.5s1 .7 1.3 1.2v-1.4h1.4v9c0 1-.2 1.8-.6 2.4-.3.6-.9 1-1.5 1.3s-1.4.4-2.3.4zm0-5c.6 0 1.2 0 1.6-.4.5-.3.8-.7 1-1.2.2-.6.3-1.2.3-1.9s0-1.3-.3-1.8c-.2-.5-.5-1-1-1.2-.4-.3-1-.5-1.6-.5s-1.2.2-1.6.5c-.5.3-.8.7-1 1.2a4.8 4.8 0 0 0 0 3.7c.2.5.5 1 1 1.2.4.3 1 .5 1.6.5zm6.6-8.1h1.5v1.3c.3-.5.6-.9 1-1.1.6-.3 1.1-.5 1.8-.5a3 3 0 0 1 2.8 1.9A3.5 3.5 0 0 1 79 178a3.5 3.5 0 0 1 3.6 0 2.9 2.9 0 0 1 1 1.3 4 4 0 0 1 .4 1.7v6.1h-1.6v-6c0-.7-.1-1.2-.5-1.6-.3-.4-.8-.6-1.4-.6-.5 0-1 .2-1.6.6-.5.4-.8 1.2-.8 2.4v5.2h-1.5v-6c0-.7-.2-1.2-.5-1.6-.3-.4-.8-.6-1.4-.6-.6 0-1.1.2-1.6.6-.6.4-.8 1.2-.8 2.4v5.2h-1.6V178zm18.3 9.5c-1 0-1.8-.2-2.4-.7s-1-1.1-1-2c0-.6.2-1 .5-1.4l1-1 2-.5 2.9-.6v-.7c0-.6-.2-1-.6-1.2-.3-.2-.8-.3-1.5-.3s-1.2.1-1.7.4-.7.7-.7 1.3h-1.5c0-1 .4-1.8 1.1-2.3.8-.5 1.7-.8 2.8-.8 1.2 0 2 .3 2.7.8.5.4.8 1 .8 2v6.8h-1.4V186c-.4.5-.8.9-1.3 1.1a4.2 4.2 0 0 1-1.7.3zm.1-1.3a3.5 3.5 0 0 0 1.4-.3 2.6 2.6 0 0 0 1-.8c.3-.4.5-1 .5-1.5v-1l-2.8.5-1.5.6c-.3.2-.5.6-.5 1 0 .5.2.9.5 1.1.3.3.8.4 1.4.4z"/></g><rect width="38" height="38" y="235.5" class="C" rx="15"/><path d="m10 244.7.8 8.7.8 8.8v.3l3.7 1 3.7 1 .7-.2 3.7-1c2.5-.7 3-.8 3-1l1.6-17.6v-.2H10v.2zm14.7 3.8-.5 5.7-.6 5.2a115 115 0 0 1-4.6 1.3l-4.2-1.1-.5-.1v-1.2l-.3-1.8v-.5h1c1.3 0 1.3 0 1.3.7a5.3 5.3 0 0 0 0 .7l.1.3 1.3.4 1.2.3 1.2-.3 1.3-.4a22.1 22.1 0 0 0 .2-2.5v-.3H14v-.2l-.1-1.1v-1H22v-.6l.1-1.1v-.5h-8.6v-.7l-.2-1v-.6h11.4v.4zm27.2 13a6 6 0 0 1-3.4-1 5.7 5.7 0 0 1-2.1-2.4c-.5-1-.7-2.1-.7-3.4s.2-2.3.7-3.3a5.6 5.6 0 0 1 5.5-3.4c1 0 1.8.2 2.5.6a4.8 4.8 0 0 1 1.9 1.6 6 6 0 0 1 .9 2.3h-1.6c-.1-.6-.4-1-.7-1.5a3.4 3.4 0 0 0-1.3-1.1 4 4 0 0 0-1.7-.4c-1 0-1.9.3-2.6.7-.6.5-1.1 1.1-1.5 1.9a7.3 7.3 0 0 0 0 5.3c.4.8.9 1.4 1.5 1.9.7.4 1.6.7 2.6.7.7 0 1.3-.2 1.8-.5a3.6 3.6 0 0 0 1.3-1.2c.4-.5.6-1.1.7-1.8h1.6c-.1 1-.4 1.8-1 2.5a5 5 0 0 1-1.8 1.8c-.7.4-1.6.6-2.6.6zm12 0c-1 0-2-.2-2.7-.6s-1.4-.8-2-1.4c-.4-.7-.6-1.6-.7-2.6h1.7c0 1 .4 1.9 1 2.4.7.4 1.6.7 2.7.7a4 4 0 0 0 2.3-.6c.6-.4.9-1 .9-1.7 0-.5-.1-.8-.3-1-.2-.3-.6-.6-1.1-.8l-2.3-.7c-1-.2-1.8-.4-2.5-.7-.6-.3-1.1-.7-1.4-1.2-.4-.5-.5-1.1-.5-1.9 0-.7.2-1.3.6-1.8.3-.5.9-.9 1.5-1.1.7-.3 1.4-.5 2.3-.5 1.7 0 3 .4 3.8 1.2.8.8 1.2 1.8 1.3 3h-1.7c0-.8-.3-1.5-.9-2s-1.4-.7-2.5-.7c-.9 0-1.5.2-2 .5s-.8.8-.8 1.4c0 .5.1.8.3 1 .1.4.4.6 1 .8l2.2.6c1.2.3 2.1.6 2.8 1 .7.3 1.2.7 1.4 1.2.3.4.4 1 .4 1.7s-.2 1.4-.6 2c-.4.5-1 1-1.7 1.3-.7.3-1.5.4-2.5.4zm11.3 0c-1 0-2-.2-2.7-.6s-1.5-.8-2-1.4c-.4-.7-.7-1.6-.7-2.6h1.6c0 1 .4 1.9 1.1 2.4.7.4 1.6.7 2.7.7a4 4 0 0 0 2.3-.6c.6-.4.8-1 .8-1.7 0-.5 0-.8-.3-1-.1-.3-.5-.6-1-.8l-2.3-.7a11 11 0 0 1-2.5-.7c-.6-.3-1.1-.7-1.5-1.2-.3-.5-.5-1.1-.5-1.9 0-.7.2-1.3.6-1.8.4-.5 1-.9 1.6-1.1.7-.3 1.4-.5 2.2-.5 1.7 0 3 .4 3.8 1.2.9.8 1.3 1.8 1.3 3h-1.6c0-.8-.4-1.5-.9-2s-1.4-.7-2.6-.7c-.8 0-1.5.2-2 .5s-.7.8-.7 1.4c0 .5 0 .8.2 1 .2.4.5.6 1 .8l2.2.6c1.3.3 2.2.6 2.9 1 .7.3 1.1.7 1.4 1.2.3.4.4 1 .4 1.7s-.2 1.4-.6 2c-.4.5-1 1-1.7 1.3-.7.3-1.6.4-2.5.4z" class="B"/><rect width="38" height="38" x="358" y="235.5" class="C" rx="15"/><path d="M378.4 248.2h.3l2.5 5.8 5.8 2.6v.3l-5.7 2.5h-.1l-2.5 5.8h-.3l-2.6-5.7v-.1l-5.8-2.5a.2.2 0 0 1 0-.3l5.8-2.6 2.6-5.8zm-7.9-1.7h.3l1 2.4h.2l2.3 1.1c.2 0 .2.3 0 .3l-2.3 1-.1.2-1 2.3c-.1.2-.3.2-.4 0l-1-2.3-.1-.1-2.4-1a.2.2 0 0 1 0-.4l2.4-1v-.1l1.1-2.4zm5.8-2.7h.3l.5 1.1 1.1.6c.2 0 .2.2 0 .3l-1 .4a.2.2 0 0 0-.1.1l-.5 1c0 .2-.2.2-.3 0l-.5-1-1.1-.5a.2.2 0 0 1 0-.3l1-.5a.2.2 0 0 0 .1-.1l.5-1zm33.6 17.6a6 6 0 0 1-3.4-.9 5.7 5.7 0 0 1-2.1-2.4c-.5-1-.7-2.1-.7-3.4s.2-2.3.7-3.3a5.6 5.6 0 0 1 5.5-3.4c1 0 2 .2 2.8.6a5.5 5.5 0 0 1 3 4H414a3.6 3.6 0 0 0-1.4-2.2 4 4 0 0 0-2.7-.9c-1 0-1.9.3-2.6.7-.6.5-1.1 1.1-1.5 1.9a7.3 7.3 0 0 0 0 5.3c.4.8.9 1.4 1.5 1.9.7.4 1.6.7 2.6.7a4 4 0 0 0 2.9-1.1c.7-.7 1.2-1.7 1.4-3h-4.9v-1.4h6.5v6.7h-1.4V259c-.4.8-1 1.4-1.8 1.9-.7.4-1.6.6-2.7.6zm8.1-13.1h9v1.4h-7.4v4h7v1.5h-7v4.6h7.4v1.4h-9v-13zm10.8 0h1.9l7 10.7v-10.7h1.6v13h-2l-7-10.9v10.8h-1.5v-13zm20.8 0h1.7l5.3 13H455l-1.4-3.8h-6l-1.5 3.7h-1.7l5.3-13zm3.3 7.8-2.4-6.2-2.5 6.2h4.9zm5.3-7.8h1.5v13h-1.5v-13z" class="B"/><defs><clipPath id="B"><path d="M363.5 167h27v27h-27z" class="B"/></clipPath></defs></svg>